<?xml version="1.0" encoding="utf-8"?>
<!-- Generator: Adobe Illustrator 24.1.0, SVG Export Plug-In . SVG Version: 6.00 Build 0)  -->
<svg version="1.1" id="Layer_1" xmlns="http://www.w3.org/2000/svg" xmlns:xlink="http://www.w3.org/1999/xlink" x="0px" y="0px"
	 viewBox="0 0 241.98 76.26" style="enable-background:new 0 0 241.98 76.26;" xml:space="preserve">
<style type="text/css">
	.icon0.st0{fill:none;}
	.icon0.st1{fill-rule:evenodd;clip-rule:evenodd;fill:none;}
	.icon0.st2{fill:#041E3A;enable-background:new    ;}
	.icon0.st3{fill:#041E3A;}
</style>
<rect x="-265" y="-143.04" class="icon0 st0" width="1440" height="10667"/>
<rect x="-265" y="-143.04" class="icon0 st1" width="1440" height="717"/>
<g>
	<path class="icon0 st2" d="M24.77,52.85H27v0.98h-7.43L7.93,38.72H7.8v14.26h3.34v0.98H0v-0.98h2.85V24.95H0v-0.98h13.38
		c7.93,0,10.53,3.44,10.53,7.25c0,4.06-3.47,6.89-10.16,7.38L24.77,52.85z M7.8,37.98h2.72c5.45,0,8.05-2.7,8.05-6.89
		c0-3.07-1.73-6.27-6.69-6.27H7.8v13.03V37.98z M46.77,52.85h-6.42V24.95h4.32v-0.98H33v0.98h2.68v28.03H33v0.98h21V41.91h-0.93
		C50.5,52.36,49.68,52.85,46.77,52.85"/>
	<g>
		<path class="icon0 st3" d="M79.58,45.96c0,0.07-0.07,0.07-0.14,0.21C79.44,46.24,79.58,46.1,79.58,45.96c0,0,0,0,0-0.07
			c-1,1.5-2.14,3.29-2.86,5.65c0.14,0.07,0.14-0.07,0.21-0.14c0,0.07,0,0.14,0,0.29c4.29-2.93,7.22-7,10.58-10.65
			c0.93-0.21,1.36,0.5,1.5,1.07c0.07,0,0.07-0.07,0.14-0.14c0.07,0.07,0.07-0.29-0.07-0.21c2.36,0.64,0.79,3.5,0.86,6
			c-0.07,0-0.14-0.14-0.07-0.29c-0.21,0.21-0.21,0.93-0.07,1.21c0,0.07,0,0.07,0,0.07c-0.29,1.79-0.86,3.57-0.43,4.93
			c-0.07,0.07-0.21,0-0.21,0c0,0.29-0.21,0.57,0.07,0.71c0,0.21-0.21,0-0.21,0.21c0.5,0.21,0.14,1.14,0.64,1.64
			c-0.29,0.07-0.57-0.29-0.5,0.21c-0.36-0.14-0.36-0.14-0.71,0c-0.36-0.29-0.36-0.64-0.93-0.79c-1.43-2.72-0.57-6.22-0.36-9.72
			c-3.29,2.79-5.29,7.36-10.15,8.22c-0.43-0.21-1.07-0.36-1.57-0.71c0.07-0.21-0.07-0.36-0.29-0.43c-0.07-0.79-0.36-1.43-0.71-1.86
			c0.64-5.29,4.22-9.86,7.72-12.87c0.64,0,1,0,1.43-0.29c1,0.64,3.14,1.07,2.5,2.79c-0.21-0.14-0.14,0.07-0.29,0.07
			c-0.29,0.07-0.36-0.21-0.64-0.21c-1.5,0.57-2.5,2.22-3.57,2.79c-0.14,0.21-0.29,0.21-0.14,0.5c-0.79,0.21-1.22,1.29-1.86,1.93
			V45.96z M75.72,48.96c0-0.07,0-0.21,0-0.21c-0.14,0-0.14,0-0.14,0s0,0.14,0,0.21C75.58,48.96,75.58,48.96,75.72,48.96z
			 M76.94,51.39 M77.08,51.17c-0.14-0.43,0.29-0.93,0.36-1.36C77.65,50.1,77.08,50.75,77.08,51.17z M77.65,49.74
			c-0.21-0.14,0.14-0.5,0.07-0.64C78.15,49.24,77.65,49.46,77.65,49.74z M77.94,48.74 M78.15,48.6c-0.21-0.07,0-0.36,0.21-0.29
			C78.3,48.46,78.15,48.46,78.15,48.6z M78.44,48.03c-0.07-0.29,0.21-0.29,0.14-0.5C78.8,47.6,78.65,48.03,78.44,48.03z M80.8,50.75
			 M80.94,50.53 M81.58,48.67c-0.29,0-0.36,0.07-0.43,0.07C81.3,48.74,81.66,48.96,81.58,48.67z M81.16,50.1
			c0,0.21,0.36,0.14,0.43,0.43C81.66,50.24,81.44,50.1,81.16,50.1z M81.66,48.67c0.07-0.29,0.5-0.57,0.21-0.86
			c-0.21,0.21-0.07,0.93-0.29,0.57C81.51,48.67,81.66,48.6,81.66,48.67z M81.66,49.96c0,0,0-0.07,0-0.14h-0.07c0,0.07,0,0.14,0,0.14
			H81.66z M82.59,48.24c0.07,0,0.43,0,0.57,0.07c-0.64,0.43-1.14,0.93-1.5,1.57c0.14,0.07,0.5-0.07,0.36,0.21
			c0.21,0,0.36-0.14,0.36-0.36c-0.14,0-0.36,0-0.36,0c0-0.36,0.5-0.14,0.5-0.43c0.14,0,0.07,0.43,0.29,0.29
			c0.29-0.29-0.14-0.36,0-0.36c0.36-0.14,1.21-0.79,0.79-1c0.07-0.14,0.29,0,0.57,0c0.43-1,1.07-1.43,1.72-2
			c0.07,0,0.07-0.07,0.14-0.07c0.36-0.79,1.72-1.64,1.14-2.93c-0.07,0.21-0.29,0.07-0.5,0c0,0.21,0.14,0.14,0.14,0.29
			c-0.29,0-0.36,0.64-0.86,0.71c0.14,0.43-0.29,0.79-0.79,0.79c-0.21,0.29-0.07,0.64-0.43,0.93c-0.07,0-0.07-0.07-0.14-0.14
			c0-0.14,0.5-0.14,0.21-0.43c-1.14,0.64-1.93,1.57-2.64,2.43c0.21,0,0.21,0.36,0.43,0.07c0.07-0.21-0.21-0.07-0.14-0.29
			c0.29-0.14,0.36,0.5,0.57,0.14c-0.21,0,0-0.29,0.14-0.21C83.16,48.1,82.8,48.03,82.59,48.24z M81.66,49.17 M81.87,50.53
			c0-0.07,0-0.21,0-0.29c-0.07,0-0.14,0-0.21,0c0,0.07,0,0.21,0,0.29C81.73,50.53,81.8,50.53,81.87,50.53z M82.01,48.53
			 M82.16,48.24 M82.66,48.31c-0.14,0-0.36,0-0.36,0.21C82.51,48.53,82.66,48.53,82.66,48.31z M82.66,47.46
			c0.14-0.21,0.5-0.21,0.71-0.21c0-0.21-0.07-0.36,0-0.5c0.14,0.07,0.21,0.21,0.29,0.29c-0.14,0.21-0.21,0.21,0,0.36
			c-0.29-0.07-0.21,0.29-0.5,0.14C83.16,47.1,82.66,47.67,82.66,47.46z M83.16,48.74 M83.3,47.89c0.07-0.14,0.29-0.36,0.36-0.43
			C83.8,47.81,83.52,47.74,83.3,47.89z M83.3,48.53 M83.66,50.1c0,0,0,0.07,0,0.14c0,0,0,0-0.07,0c0-0.07,0-0.14,0-0.14
			C83.66,50.1,83.66,50.1,83.66,50.1z M84.02,47.24c-0.07,0.07,0,0.29-0.36,0.21C83.87,47.39,83.8,47.24,84.02,47.24z M83.87,46.46
			 M84.16,47.46 M84.66,46.46c0-0.14,0.07-0.21,0.21-0.21C84.87,46.46,84.8,46.53,84.66,46.46z M84.66,47.1c0-0.07,0-0.14,0-0.14
			s0.07,0,0.14,0C84.8,47.03,84.8,47.24,84.66,47.1z M84.8,46.96 M84.87,46.24 M85.16,45.96c0-0.07,0-0.14,0.14-0.14
			C85.3,45.89,85.23,45.96,85.16,45.96z M85.23,45.24 M85.66,45.6c0.07-0.36,0.21-0.43,0.57-0.43
			C86.02,45.24,85.94,45.46,85.66,45.6z M85.87,46.17c0,0,0,0,0,0.07C85.8,46.24,85.73,46.17,85.87,46.17z M86.09,44.81
			c0,0.07,0,0.14,0,0.21c0,0-0.07,0-0.14,0c0-0.07,0-0.14,0-0.21C86.02,44.81,86.09,44.81,86.09,44.81z M86.23,44.46
			c0.21-0.07,0.43,0.36,0.14,0.36C86.37,44.6,86.09,44.67,86.23,44.46z M86.37,44.81 M86.66,44.31 M86.8,44.81c0.07,0,0.14,0,0.29,0
			c0-0.14,0-0.21,0-0.21c-0.14,0-0.21,0-0.29,0C86.8,44.6,86.8,44.67,86.8,44.81z M87.09,44.38 M88.66,56.25 M89.16,41.95
			c-0.07,0-0.07,0-0.07-0.07C89.16,41.88,89.16,41.88,89.16,41.95z M89.09,41.88 M89.88,49.24c-0.21,0-0.07-0.29-0.07-0.5
			C89.95,48.53,89.88,49.17,89.88,49.24z M89.8,48.67 M89.8,49.39 M89.88,47.31 M89.95,48.17c-0.07-0.07-0.07,0-0.07,0.07
			c0,0,0-0.14,0-0.36C89.95,47.89,89.95,48.03,89.95,48.17z"/>
		<path class="icon0 st3" d="M116.1,22.51c-0.29,0.14-0.5,0.36-0.79,0.36c-0.36,0.07-0.36-0.57-0.71-0.21c0-0.14-0.14-0.07-0.21-0.14
			c0,0.14,0.14,0.07,0.21,0.14c0,0.07,0,0.14,0,0.21c-0.64,0.07-0.93-0.36-1.43,0c0-0.29-0.43-0.14-0.5-0.36
			c-0.07,0.36,0.36,0.14,0.21,0.57c-0.29-0.57-0.93,0-1.22-0.43c-0.07,0-0.21,0.36-0.21,0c-0.36,0.36-0.86-0.21-1.07,0.29
			c-0.57-0.21-1.57-0.21-2.22,0.14c0.14,0.21,0.36,0.07,0.64,0.07c-0.07,0.07-0.21,0.21,0,0.21c-0.14,0.29-0.43,0.07-0.43-0.07
			c-0.36,0.07-0.36,0.36-0.43,0.64c0.79,0,2,0.21,2.36-0.21c0.43,0.07-0.14,0.14-0.07,0.29c0.57,0.07,1.64-0.29,1.72,0.07
			c0.29,0.07,0.14-0.29,0.43-0.29c0.14,0.21-0.29,0.43-0.43,0.57c-0.36,0-0.5-0.29-0.79,0c0.07,0.14,0.71,0.14,0.79,0
			c0.5,0.07,0.93,0.07,1.64-0.14c-0.14-0.07-0.29-0.14-0.07-0.29c0.36,0,0.07,0.29,0.21,0.43c0.36,0,0.86,0.21,1.21,0
			c-0.21-0.29-0.43-0.14-0.57-0.43c0.5-0.43,1.57,0.21,1.86-0.36c0.14,0.07,0.14,0.14,0.07,0.21c0.57-0.07,0.79,0,1.21,0
			c0.14,0,0-0.07,0-0.21c1.5,0.64,3.07,0,5.15,0.64c0.29,0.14,0.14-0.21,0.36-0.21c-0.07,0.14,0.36,0.14,0.36,0
			c0.07,0,0.07-0.07,0.14-0.07c0.21-0.07,0.29,0.07,0.29,0.21c0.07-0.21,0.36-0.14,0.57-0.07c-0.43,0.21,0.21,0.29,0.57,0.29
			c0.71,0.36,1.43-0.14,2.07,0.29c0.07-0.29-0.29-0.14-0.36-0.43c0.14,0,0-0.07,0,0c-0.43-0.14-1-0.21-1.43-0.5
			c-0.07-0.29,0.29-0.07,0.29-0.36c-0.57,0-0.36,0.29-0.64,0.36c-0.36,0,0-0.21-0.07-0.43c-0.21,0-0.36,0.14-0.36,0.43
			c-0.14-0.21-0.36-0.07-0.43-0.14c0-0.14,0.07-0.21,0.29-0.21c0,0.14,0.07,0.07,0.07,0c0.14,0,0-0.07,0,0h-0.07
			c-0.43-0.57-2,0-2.36-0.57c-0.21,0-0.07,0.36-0.29,0.29c-0.07-0.14-0.14-0.21-0.14-0.36c-0.21,0-0.36,0.21-0.5,0.36
			c0-0.21-0.36-0.07-0.21-0.36c0.14,0,0.14,0.07,0.29,0.07c0.14-0.36-0.5,0.07-0.43-0.36c2.07,0.14,3.72,0.43,5.72,0.79
			c-0.07,0.14,0,0.29,0.07,0.36c-0.14,0-0.29,0.36,0,0.21c0,0.07,0,0.07,0,0.14c0.07-0.07,0-0.14,0-0.14c0-0.07,0-0.14,0-0.21
			c0.07,0,0.14,0,0.14-0.07c0.29,0.14,0.43,0.5,0.86,0.21c0.93,0.93,1.21,2.72,0.29,3.43c0.21-0.36-0.64,0-0.86-0.5
			c-0.57,0.29-1,0.29-1.57,0c0.21-0.36,0.79-0.36,1.14-0.57c-2.36-1-4.29-0.43-6.72-1.22c0,0.29-1.07,0.43-1.22,0.07
			c-0.36,0.21-0.43,0.07-0.93,0.14c0-0.07,0-0.21,0-0.29c-0.14,0-0.07,0.29-0.14,0.29c-0.43-0.21-0.71-0.07-0.93-0.29
			c-0.21,0.43-1.72,0.29-2.43,0.07c-1.93,0.14-4.22,0.21-6.58,0.43c-0.43,0.79-0.64,1.72-1,2.57c-0.07,0-0.14-0.14-0.21-0.21
			c-0.07,0.36,0.14,0.43,0.07,0.79c-0.14,0.14-0.14,0-0.36,0c-0.07,0.71-0.71,1.14-0.36,1.72c-0.07,0-0.21,0-0.29,0
			c-1.29,3.57-2.5,6.86-4.29,9.79c-0.43,2-1.79,3.79-3.15,5.15c0,0.64,0.21,1.14-0.21,1.57c0,0.29,0.14-0.07,0.21,0.14
			c-0.07,0.79-0.14,1.79-0.14,2.57c-0.14,0.14-0.21,0.29-0.43,0.36c0.71,3.07-0.43,6.72,1.29,9.86c0.21,0.07,0.43,0.07,0.57,0.14
			c3.93-1,5.29-4.5,8-6.65c-0.07-0.29,0.14-0.36,0.07-0.64c0.64-0.21,0.64-1.14,1.36-1.36c0.07-0.64,0.57-0.86,1-1.22
			c0.93-1.79,2.22-3.36,3.5-4.86c1.36-1.79,2.29-4,4.07-5.36c-0.93,1.07-1.36,2.57-2.43,3.43c-0.07,0.29,0.07,0.29,0.07,0.43
			c-1.5,1.07-1.79,2.93-3.36,4c0,0.07,0.14,0.14,0.07,0.29c-0.07,0-0.07-0.14-0.14-0.14c-1.86,3.29-4.86,6.22-7.22,9.29
			c0.57,0.14,0.71-1,1.43-1c0.14-0.21-0.29,0-0.14-0.29c0.5,0.14,0.64-0.5,1-0.64c0.07-0.21-0.14-0.14-0.07-0.43
			c0.07,0.07,0.14,0.14,0.21,0.21c2.43-2.57,4.5-5.22,6.43-8.29c0.14,0,0.36-0.07,0.5-0.14c0.14-0.86,1-2.07,1.72-2.57
			c0-0.14-0.07-0.21-0.21-0.29c0.43,0,0.07-0.5,0.71-0.57c-0.21-0.43,0.36-0.64,0.5-1c-0.43,1.71-2.22,3.29-2.57,5.15
			c-0.43-0.07-0.57,0.21-0.57,0.57c0.07,0.29,0.29-0.14,0.43,0.07c-0.07,0.36-0.36,0.29-0.64,0.21c-0.07,0.14,0,0.36-0.21,0.5
			c0.14,0.21,0.29-0.29,0.64-0.07c-0.71,1-1.36,2.79-2.43,4.07c0,0.21,0.07-0.07,0.21,0.07c-2.36,2.86-4.65,6.29-7.72,8.72
			c-1.5,0.64-3.57,1.21-4.93,0.07c-3.72-3.93-3.07-10.51-2.79-15.87c-0.07-0.21-0.21-0.29-0.5-0.29c-0.5-0.86-1.07-1.79-1-3
			c0.36,0,0.36-0.43,0.57-0.57c0.36,0.07,0.36,0.5,0.5,0.86c0.14,0,0.29,0,0.29,0.07c0.21-0.07,0.36-0.21,0.57-0.29
			c0.71-4.15,1.36-8.79,2.43-12.65c-0.14-1.14,0.71-2.43,0.64-3.72c-5.15,0.57-8.79,1.21-13.79,1.64c-0.93-0.21-1.43-0.14-2.57-0.36
			c-0.64-0.64-0.86-2.22-0.36-3.14c2.64,0.29,5.93,0.36,8.86,0.07v0.07c0.07,0,0.07-0.07,0-0.07c0-0.14,0.14-0.07,0.14-0.14
			c1.36,0.21,1.86-0.29,3,0c0.29-0.07-0.14-0.14-0.07-0.36c0.5,0.14,0.5,0.14,0.86-0.07c0,0.07,0,0.21,0,0.29
			c0.14,0,0.07-0.29,0.21-0.29c0.21,0.14,1,0.21,1.07-0.21c0.21,0.21,0.36,0.21,0.43,0.29c0,0.5-0.79,0.29-0.79,0.86
			c-0.21-0.36-0.79,0.07-1.14-0.21c0.5,0.57,1.43,0.29,2.29,0.21c0.14,0,0.07,0.21,0,0.21c0.14,0,0.43,0.14,0.43-0.07
			c0.36,0.21,1.07,0.14,1.29-0.14c-0.21,0.36,0.21,0.07,0.43,0.21c0.29-0.14,0.29-0.57,0.36-1c0.07-0.07,0-0.07,0,0
			c-0.21,0.07-0.21,0.36-0.5,0.29c-0.14-0.29-0.43,0.14-0.57-0.14c0.07-0.14,0.29-0.14,0.36-0.29c-0.14-0.21-0.36,0.14-0.21-0.36
			c0.29,0.57,1-0.29,1.14,0.07c0.14-1.29,0.86-2.29,0.86-3.36c2.79-6.5,4.5-14.15,8.93-19.08c1.57,0,2.5,0.79,3.36,1.72
			c0.29,1.07,0.14,2.64-0.36,3.65c0,0.14,0.14,0.14,0.29,0.07c-1.5,6.15-2.93,10.36-4.79,16.15c3.93,0.21,7.86-0.29,12.08,0.07
			c-0.21,0.21-0.36,0.43-0.79,0.43C118.61,22.51,117.11,23.23,116.1,22.51z M88.66,24.01 M89.73,23.94 M90.95,23.73
			c0,0.14-0.14,0.07-0.14,0.21c-0.14-0.07-0.07-0.21-0.14-0.29C90.8,23.66,90.8,23.73,90.95,23.73z M91.3,23.73 M93.66,23.73
			 M95.52,24.01 M95.95,23.73 M96.66,40.88c0.07,0.36-0.14,0.5-0.14,0.79C96.81,41.67,96.95,40.95,96.66,40.88z M96.95,24.37
			c-0.07-0.07-0.07,0-0.07,0.07c-0.14,0-0.07-0.14-0.07-0.29C96.95,24.16,96.95,24.23,96.95,24.37z M97.38,38.6
			c0-0.07-0.07-0.14-0.14-0.07c-0.14,0.71-0.5,1.14-0.36,1.86C96.95,39.74,97.52,39.17,97.38,38.6z M97.45,23.94
			c0.14-0.07,0.07-0.14,0-0.14c0,0,0-0.07,0-0.14c-0.07,0.14-0.36,0.07-0.36-0.14c0.57-0.14,0.64,0.07,1.14,0
			c0.07,0.21-0.29,0.36,0.07,0.29c-0.07,0.5-0.64,0.07-0.86,0.43c-0.29,0.07-0.21-0.21-0.57-0.14c0.14-0.29,0.21-0.36,0.57-0.29
			C97.45,23.87,97.45,23.87,97.45,23.94z M97.31,37.38 M97.45,40.31 M97.52,36.95c0,0.29-0.14,0.36,0.14,0.5
			C97.74,37.38,97.88,36.88,97.52,36.95z M97.74,38.67c-0.07,0.07-0.21,0.36,0,0.36C97.74,38.95,97.95,38.67,97.74,38.67z
			 M97.67,36.59 M97.81,24.59c-0.07,0-0.07,0-0.07-0.07C97.74,24.52,97.81,24.52,97.81,24.59z M97.74,24.52 M97.81,23.73
			 M97.81,34.81 M97.95,35.74c0.14-0.07,0.14-0.21-0.07-0.21c0,0.07,0,0.14-0.07,0.21C97.88,35.74,97.95,35.74,97.95,35.74z
			 M97.95,37.74c0,0.14-0.07,0.21-0.14,0.36C98.02,38.09,98.31,37.81,97.95,37.74z M98.52,33.02c-0.14-0.14-0.29-0.21-0.36-0.36
			c-0.07,0.79-0.29,1.22-0.21,1.72C98.09,33.81,98.45,33.59,98.52,33.02z M97.95,35.24 M98.17,37.24c0-0.14-0.07-0.21-0.21-0.21
			c0.07,0.14,0,0.29,0.14,0.29C98.09,37.24,98.09,37.17,98.17,37.24z M98.09,24.23 M98.24,24.52c0.14-0.14,0.43-0.21,0.57-0.07
			C98.67,24.73,98.59,24.52,98.24,24.52z M98.81,29.3c0.29,0.64-0.43,1.43-0.14,2.07c-0.14,0-0.14-0.07-0.29-0.07
			c-0.07,0.36,0.14,0.5,0.21,0.79c-0.29,0-0.21-0.14-0.36,0c0.07,0.21,0,0.5,0.36,0.5c0.07-0.21,0.29-0.71,0-0.86
			c0.29-0.07,0.5-0.79,0.14-0.79c0.29-0.57,0.5-1.36,0.71-2.22c-0.14,0-0.21-0.07-0.29-0.07c-0.14,0.07-0.14,0.43,0,0.57
			C99.02,29.38,99.02,29.16,98.81,29.3z M98.24,33.16 M98.52,23.51c0,0.07,0.07,0.07,0.14,0.07c0,0.07,0.14,0.14,0.07,0.36
			c-0.21-0.14-0.5-0.14-0.43-0.57c0.29,0,0.5-0.14,0.5,0.21c0,0-0.07,0-0.14,0C98.67,23.51,98.52,23.51,98.52,23.51z M98.38,35.16
			 M98.67,34.23 M99.17,31.66c0,0.14-0.21,0.07-0.14,0.29C99.24,32.09,99.38,31.66,99.17,31.66z M101.31,26.8
			c0.29,0.71,0.07,1.71-0.5,2.36c0.21,1.14-1.07,2.57-0.71,4.43c-0.07,0-0.14,0-0.21,0c0.21,0.57-0.71,1.93-0.29,2.86
			c-0.43,0.21-0.21,0.71-0.57,1c2.36-3.29,3.65-8,5.07-12.01c-0.79,0.07-1.43,0.21-2,0.07C101.95,25.94,101.67,26.44,101.31,26.8z
			 M99.17,24.09c0-0.07,0-0.14,0-0.14c0.07,0,0.14,0,0.21,0C99.31,24.01,99.31,24.16,99.17,24.09z M99.17,24.44 M99.45,27.87
			c0,0.14-0.14,0.21-0.07,0.36C99.67,28.37,99.74,27.8,99.45,27.87z M99.6,23.23c-0.07,0-0.14,0-0.21,0
			c-0.07-0.21,0.14-0.14,0.14-0.29C99.6,23.01,99.6,23.16,99.6,23.23z M99.45,23.66 M99.45,27.16 M99.52,27.8
			c0.21,0,0.29-0.14,0.29-0.36c-0.21,0-0.29,0-0.36,0.07C99.45,27.66,99.45,27.73,99.52,27.8z M99.88,26.23c0,0.14,0,0.29,0.14,0.29
			C100.02,26.37,99.95,26.3,99.88,26.23z M100.02,25.94 M100.24,27.02c-0.07,0.21-0.43,0.5,0,0.57
			C100.02,27.3,100.6,27.02,100.24,27.02z M100.45,24.52c-0.07-0.07-0.29-0.21-0.21,0.07c0.14,0.07,0.29,0,0.43-0.07
			c-0.14-0.29,0.14-0.57,0-0.71c-0.07,0.14-0.14,0.29-0.36,0.29C100.24,24.37,100.6,24.23,100.45,24.52z M100.38,26.37
			 M100.52,28.02 M100.95,23.16c0-0.14,0.07-0.21,0.14-0.29c-0.21,0-0.64,0.21-0.36,0.36C100.74,23.16,100.88,23.16,100.95,23.16z
			 M101.31,21.44c-0.07,0.07-0.36,0.21-0.07,0.36C101.24,21.66,101.6,21.51,101.31,21.44z M101.67,20.08
			c-0.07,0.21-0.36,0.21-0.36,0.5C101.6,20.58,102.02,20.23,101.67,20.08z M101.52,21.16 M101.6,20.73 M101.81,59.54 M102.02,18.87
			c-0.07,0.14-0.21,0.57,0.07,0.57C102.31,19.3,102.45,18.94,102.02,18.87z M102.02,20.51 M104.24,24.09
			c-0.07,0.29,0.14,0.29,0.07,0.5c-0.29-0.07-0.21-0.07-0.36,0.21c0.86-0.07,0.5-0.86,0.86-1.29c-0.29-0.07-0.43,0.21-0.5-0.14
			c0.14,0,0.29,0,0.43,0c0-0.07,0.07-0.14,0.07-0.21c0.14-0.07,0-0.14,0,0c-0.64-0.14-1.29,0.21-1.86,0.21
			c0.14,0,0.29,0.07,0.29,0.21c-0.36,0.14-0.29-0.07-0.57-0.21c-0.14,0.36-0.29,0.71-0.43,1.14c0.57-0.14,1.21-0.21,1.93-0.14
			c0-0.21,0-0.43,0.14-0.43c0,0.07,0.07,0.07,0.07,0.07C104.38,24.09,104.31,24.09,104.24,24.09z M102.53,17.15
			c0.07,0.21,0,0.5,0.29,0.5C102.74,17.44,102.81,17.15,102.53,17.15z M102.53,23.09 M102.67,24.87 M107.74,7.22
			c-0.79,0.29-0.29,1.5-1.07,1.57c-0.14,0.36,0.29,0.14,0.21,0.43c-0.29,0.29-0.29,0.71-0.64,0.79c0.21,0.79-0.14,1.29-0.64,1.5
			c0.43,0.07,0.14,0.21,0.07,0.5c0.5,0,0.36-0.64,0.64-0.79c0.21,0.86-1,1.43-0.5,2.22c-0.36,0.29-0.43,0.86-0.79,1.07
			c0.14,0.21,0.29-0.36,0.43,0.07c-0.71,0.5-0.43,2.57-1.21,2.72c0.21,1.86-1.21,3.5-1.43,5.5c0.36,0.07,0.57-0.21,0.93,0
			c-0.07,0.21-0.5,0-0.43,0.29c0.71-0.14,0.57-0.43,1.72-0.36c2-6.79,4.79-14.08,5.72-20.8c-0.21-0.14-0.43-0.29-0.79-0.43
			c0.07,0.36,0.36,0.43,0.57,0.64C109.39,3.57,107.89,5.43,107.74,7.22z M102.88,23.09 M102.95,16.87 M103.1,16.22
			c0.07,0.14-0.21,0.36,0,0.43C103.17,16.58,103.31,16.22,103.1,16.22z M103.1,24.16c-0.07-0.21,0.21-0.14,0.36-0.14
			C103.45,24.16,103.31,24.23,103.1,24.16z M103.67,14.79c-0.14,0.43-0.5,1-0.36,1.29C103.38,15.72,104.03,15.15,103.67,14.79z
			 M103.45,23.59 M103.53,24.8C104.03,24.87,103.67,24.52,103.53,24.8C103.45,24.8,103.53,24.87,103.53,24.8z M103.53,24.09
			 M103.81,16.01c-0.07,0.07-0.21,0.43,0,0.43C103.67,16.22,104.03,16.08,103.81,16.01z M103.81,14.29
			c0.21,0.07,0.14-0.07,0.14-0.21c0.14-0.07,0-0.14,0,0C103.88,14.15,103.88,14.22,103.81,14.29z M104.24,12.44 M104.24,22.94
			 M104.24,29.52 M104.38,24.01 M104.67,15.37 M104.81,28.3c0-0.07,0-0.14,0-0.21c0,0-0.07,0-0.14,0c0,0.07,0,0.14,0,0.21
			C104.74,28.3,104.81,28.3,104.81,28.3z M105.24,13.44 M105.81,12.36c-0.21-0.07-0.07-0.43-0.36-0.36c0.21,0.36-0.21,0.5,0,0.79
			C105.53,12.58,105.74,12.51,105.81,12.36z M105.81,29.66c0-0.07,0-0.14,0-0.29C106.03,29.3,106.03,29.8,105.81,29.66z
			 M106.03,28.87 M106.1,23.94 M106.31,23.59c0.21,0,0.21-0.29,0.36-0.5c-0.21-0.07-0.21,0.14-0.43,0.07
			C106.17,23.37,106.38,23.3,106.31,23.59z M106.46,9.43 M106.46,22.87 M106.81,21.8 M107.17,20.73c0,0.07,0,0.21,0,0.29
			C107.39,21.16,107.39,20.66,107.17,20.73z M107.39,20.08c-0.07,0.07-0.07,0.21-0.07,0.43C107.6,20.51,107.67,20.08,107.39,20.08z
			 M107.53,19.65c-0.07,0.21-0.21,0.21,0.07,0.29C107.67,19.87,107.67,19.65,107.53,19.65z M107.53,7.22 M107.53,53.53
			 M107.81,19.44c0-0.07,0-0.07,0-0.14c0,0-0.07,0-0.14,0c0,0.07,0,0.07,0,0.14C107.74,19.44,107.81,19.44,107.81,19.44z
			 M108.24,24.52c0-0.07,0-0.14,0-0.14c-0.07,0-0.07-0.07-0.14-0.14c0,0.29-0.5-0.07-0.36,0.29
			C108.03,24.44,108.03,24.44,108.24,24.52z M108.03,18.08 M108.03,18.58 M108.46,17.08c0.36,0,0.21-0.5,0.14-0.71
			c0,0.07-0.07,0.07-0.14,0.07C108.53,16.72,108.53,16.8,108.46,17.08z M108.53,24.44C108.89,24.52,108.53,24.16,108.53,24.44
			C108.39,24.52,108.53,24.52,108.53,24.44z M108.6,24.23 M109.1,15.22c-0.21,0-0.29,0.14-0.21,0.36
			C109.1,15.65,109.1,15.44,109.1,15.22z M110.17,24.37c-0.57,0.07-0.86-0.14-1.14-0.29c0,0.14-0.14,0.14-0.07,0.36
			C109.46,24.3,109.96,24.66,110.17,24.37z M108.96,16.65 M109.46,13.72c-0.14,0.21-0.29,0.36-0.36,0.64
			C109.6,14.37,109.6,13.87,109.46,13.72z M109.24,23.16 M109.67,23.16 M109.82,23.8c0-0.07,0.14,0,0.14-0.14
			C110.24,23.73,109.89,24.01,109.82,23.8z M109.89,13.22 M109.96,12.22 M110.1,11.94 M111.1,24.44c-0.14-0.5-0.64-0.29-0.86,0
			C110.67,24.52,110.82,24.3,111.1,24.44z M110.32,24.94 M110.53,10.51 M110.67,50.39 M110.82,49.32 M110.96,23.73 M111.03,23.3
			 M111.1,22.66 M111.25,24.87 M111.6,23.73 M112.25,48.6c0-0.07,0-0.07,0-0.14c-0.07,0-0.14,0-0.21,0c0,0.07,0,0.07,0,0.14
			C112.1,48.6,112.17,48.6,112.25,48.6z M112.1,46.74 M112.32,46.39c0.07,0,0.07,0,0.14,0c0.07-0.14,0.07-0.21-0.07-0.29
			c0,0.07,0,0.14-0.07,0.14C112.32,46.24,112.32,46.31,112.32,46.39z M112.39,49.03c0,0.07,0,0.21,0,0.29
			C112.6,49.46,112.6,48.96,112.39,49.03z M112.46,23.09 M112.89,23.94c0,0.14,0.14,0.14,0.07,0.29c-0.21,0-0.43,0-0.43-0.29
			C112.67,23.94,112.82,23.94,112.89,23.94z M112.89,45.89c0-0.07,0-0.14,0-0.21c-0.07,0-0.07,0-0.14,0c0,0.07,0,0.14,0,0.21
			C112.82,45.89,112.82,45.89,112.89,45.89z M112.89,23.66 M113.25,24.16c-0.14-0.07-0.14-0.14-0.14-0.36
			c0.14,0.07,0.14,0,0.14-0.14C113.53,23.73,113.32,24.01,113.25,24.16z M113.39,47.31c0.21,0.21,0.21-0.14,0.43-0.07
			C113.89,47.53,113.39,47.74,113.39,47.31z M113.6,24.8 M113.82,23.59c0,0.07,0,0.07,0,0.14c0,0-0.07,0-0.14,0
			c0-0.07,0-0.07,0-0.14C113.75,23.59,113.82,23.59,113.82,23.59z M113.82,22.66 M113.82,23.16 M113.82,24.16 M114.1,22.66
			 M114.46,43.53 M114.53,23.16 M115.46,22.44c-0.21,0-0.43,0-0.43,0.21C115.25,22.66,115.39,22.58,115.46,22.44z M116.75,24.23
			c-0.36,0.07-0.43-0.07-0.57-0.07C114.82,24.16,115.89,24.66,116.75,24.23z M115.96,24.01 M116.1,23.09 M116.39,22.66
			 M117.03,41.17c0,0.07,0,0.07,0,0.14c-0.07,0-0.14,0-0.21,0c0-0.07,0-0.07,0-0.14C116.89,41.17,116.96,41.17,117.03,41.17z
			 M116.96,24.23 M117.18,24.87 M117.25,40.24 M118.96,24.23c-0.36,0.21-0.07-0.36-0.5-0.21c-0.14,0.64-0.79-0.29-1.07,0.21
			C117.61,24.44,118.68,24.44,118.96,24.23z M117.82,22.73 M118.32,22.87c0,0.07,0,0.14,0,0.21c-0.07,0-0.14,0-0.21,0
			c0-0.07,0-0.14,0-0.21C118.18,22.87,118.25,22.87,118.32,22.87z M118.75,22.73 M118.75,23.73c0-0.21,0.21-0.14,0.36-0.07
			C119.04,23.8,118.89,23.73,118.75,23.73z M119.18,23.16 M119.25,24.23c-0.14,0.29,0.5,0.29,0.5,0.14
			C119.46,24.44,119.54,24.23,119.25,24.23z M119.39,22.66 M119.54,23.16c0-0.14,0.07-0.21,0.14-0.29
			C119.68,23.01,119.68,23.16,119.54,23.16z M119.96,23.73 M120.11,22.94 M120.11,24.09 M120.46,24.37
			c-0.14-0.14-0.36-0.14-0.36,0.07C120.25,24.52,120.39,24.52,120.46,24.37z M120.39,23.3 M120.39,23.73 M120.46,22.94
			c0-0.21-0.14-0.14,0-0.29C120.75,22.58,120.75,23.01,120.46,22.94z M120.54,24.44c0.14-0.07,0.43,0.07,0.43-0.07
			C120.82,24.37,120.54,24.23,120.54,24.44z M120.97,23.73c0,0.21-0.29,0.07-0.36,0C120.68,23.51,120.82,23.8,120.97,23.73z
			 M121.04,23.16c-0.07,0-0.07-0.07,0-0.07C121.04,23.09,121.04,23.09,121.04,23.16z M121.32,23.23c0,0.14-0.43,0.14-0.29-0.07
			C121.18,23.16,121.25,23.16,121.32,23.23z M121.25,23.8 M121.39,24.52 M121.47,23.94c0.29-0.29,0.57-0.14,0.93-0.14
			C122.32,24.16,121.89,23.8,121.47,23.94z M121.68,22.8 M121.89,23.3 M122.18,23.23 M122.61,23.23c-0.07,0-0.07,0.07-0.07,0.07
			c-0.14,0-0.07-0.14-0.14-0.21C122.54,23.01,122.61,23.16,122.61,23.23z M122.54,24.09 M122.68,23.23 M123.04,24.01 M123.25,23.59
			c-0.14,0-0.14-0.14-0.14-0.36C123.4,23.23,123.11,23.37,123.25,23.59z M123.4,24.01 M123.54,23.3 M123.9,23.51
			c0,0.14-0.07,0.14-0.07,0.21c-0.07,0-0.14,0-0.21,0c0-0.07,0-0.14,0-0.21C123.68,23.51,123.82,23.51,123.9,23.51z M123.82,24.59
			 M124.04,24.16C123.97,24.09,123.97,24.16,124.04,24.16C124.11,24.3,124.18,24.16,124.04,24.16z M124.04,23.09 M124.97,24.37
			c-0.07-0.14-0.07-0.21,0.21-0.21c0,0.07,0,0.07,0,0.07C125.11,24.23,125.04,24.3,124.97,24.37z M125.4,24.16
			c0.07,0.14-0.07,0.21-0.21,0.21c0-0.07,0-0.07,0-0.14C125.25,24.23,125.25,24.16,125.4,24.16z M126.18,23.66
			c-0.21-0.14-0.29-0.14-0.57-0.07C125.54,23.87,126.18,23.94,126.18,23.66z M125.83,24.87 M126.04,24.66 M126.4,24.8
			C126.33,24.66,126.25,24.8,126.4,24.8C126.25,25.16,126.61,24.8,126.4,24.8z M126.97,24.37c0.29,0,0.14,0.71,0.71,0.43
			c-0.43,0-0.43-0.29-0.21-0.43c-0.29,0.07-0.07-0.36-0.43-0.29c0-0.07-0.29-0.29-0.36-0.07c0.07,0.07,0.21,0.07,0.36,0.07
			C127.25,24.3,127.04,24.16,126.97,24.37z"/>
		<path class="icon0 st3" d="M169.71,21.94c0,0.07,0.07,0.07,0.14,0.07c0.07,0.14,0.07,0.21,0.21,0.29c-0.07,0.14-0.21,0.21-0.21,0.5
			c-0.29-0.14-0.5,0.43-0.79,0.64c0.14,0.29,0.14-0.21,0.36-0.14c-0.14,1.07-0.64,2.36-0.79,3.22c0,0.14-0.14,0.14-0.29,0.14
			c0.14,0.57-0.21,0.71-0.36,1.14c0,0.14,0.14,0,0.14-0.07c0.21,0.14-0.21,0.29-0.07,0.64c-0.14,0.14-0.21,0.14-0.36,0
			c0.07,0.21-0.14,0.64,0.21,0.64c-0.43,0.5-0.43,1.22-1.14,1.14c0,0.14,0,0.29,0,0.36c0.29-0.14,0.43-0.36,0.57,0
			c-0.57,0.21-0.36,1.29-0.86,1.64c-0.14-0.5,0.21-0.71,0.21-1.29c-0.14,0.29-0.36,0.36-0.36,0.79c-0.14,0.07-0.43,0-0.5,0.14
			c0.14,0.43-0.5,1-0.29,1.57c0.21-0.29,0.36-0.93,0.5-1.36c0.21,0,0.21,0.14,0.43,0.14c-0.07,0.36,0.14,0.5,0.21,0.71
			c-0.14,0-0.21,0.07-0.36,0.07c-0.36,1.43-0.57,2.43-1.21,3.5c0.93,0.14,1.79,0.07,2.64-0.29c0.21,0,0.14,0.29,0.29,0.29
			c0.14-0.07,0.14-0.29,0.29-0.36c0.14,0,0.14,0.14,0.14,0.36c0.36-0.5,1.36,0.36,1.43-0.14c0.14,0.07,0.71,0.5,0.71,0
			c0.29-0.07,0.64,0.43,0.79,0.07c0.21,0.29,0.21,0.21,0.64,0.21c0.57,0.71,0.64,1.79,0.36,2.5c-3-0.43-5.29-0.21-7.79-0.07
			c-0.36,0.21-0.43,0.71-0.5,1.21c-0.36-0.36-0.07-0.64,0-1.07c0.07,0.07,0.07,0,0.07-0.07c-0.07,0-0.07,0.07-0.07,0.07
			c-0.57,0.43-0.21,1.29-0.64,1.72c0.07,0.36,0.29-0.14,0.29,0.14c0.14,1.29-0.64,2.07-1,3.22c-0.36,0.07,0-0.14-0.14-0.43
			c-0.29,0.43-0.29,0.71-0.43,1.5c0.29-0.07,0.07-0.5,0.36-0.43c0,0.07,0,0.29,0.21,0.21c0,0.43-0.5,0.36-0.29,0.71
			c-0.21,0.07-0.21-0.14-0.43-0.07c-0.21,0.14-0.21,0.57-0.29,0.93c0.29-0.14,0.29-0.43,0.29-0.79c0.29,0,0.21,0.29,0.29,0.5
			c-0.57,1.57-1.14,3.07-1.07,4.65c-0.5,0.14-0.29,1-0.57,1.36c-0.14,0.07,0,0.14,0,0c0.07,0,0.07,0,0.14,0
			c-0.21,0.5-0.21,1.29-0.64,1.57c0,0.07,0.14,0.07,0.21,0.14c-0.57,1.07-0.29,2.07-0.57,3.07c-0.36,0.14-0.43-0.07-0.5-0.21
			c-0.21,0.07-0.21,0.29-0.14,0.5c0.21-0.14,0.5-0.07,0.71-0.14c-0.21,0.71-0.36,1.57-0.29,2.29c-0.07,0-0.14,0.14-0.29,0.07
			c-0.07,0.5,0.36-0.07,0.29,0.36c-0.07,0-0.07,0.07-0.07,0.14c-0.21-0.07-0.36-0.21-0.57,0c0.14,0.07,0.36,0.14,0.43,0.14
			c0.5,0.36-0.36,1,0.21,1.36c-0.43,0.57-0.21,1.43-0.14,2.29c-0.14,0-0.14-0.14-0.29-0.14c-0.07,0.29-0.07,0.57,0.29,0.64
			c-0.14,1.29-0.14,2.36-0.36,3.43c0,0.21,0.14,0.21,0.21,0.29c-0.07,0.57-0.21,1.07-0.71,1.22c-0.71,0.07-0.71-0.57-1.36-0.5
			c0-0.5-0.36-0.64-0.79-0.64c-0.14-0.21-0.07-0.64-0.36-0.64c0.21-1.86,0.07-4,0.07-5.79c0.14-3,0.43-5.86,0.86-8.72
			c0.79-4.72,2.22-9.15,3.57-13.65c-2.22,0.43-3.86,0.64-5.72,1c-0.29,0.29-0.21,0.93-0.64,1.07c0-0.07,0-0.14,0-0.21
			c0.14,0,0-0.07,0,0c-0.14,0.07-0.07,0.21,0,0.21c0.14,0.29-0.14,0.36-0.29,0.57c0-0.07,0-0.14,0-0.21c-0.07,0-0.07,0.21,0,0.21
			c0.07,0.21-0.14,0.21-0.07,0.43c-0.14,0-0.14-0.14-0.29-0.14c0.21,0.71-0.36,1.57-0.86,1.71c0.43,0.43-0.43,0.79-0.43,1.36
			c-0.07,0-0.14-0.07-0.21-0.07c-0.14,0.29-0.43,0.5-0.29,0.93c-0.21-0.07-0.29,0-0.21,0.29c-0.14,0,0,0.07,0,0
			c0.29-0.21-0.14,0.64-0.36,0.71c0,0,0-0.07,0-0.14c-0.07,0-0.07,0.07-0.07,0.14c-0.07,0-0.14,0.07-0.14,0.14
			c0,0.86-0.93,1.71-1.14,2.86c-0.21,0.21-0.21,0-0.43,0c0.14,0.5-0.14,1-0.57,1.14c0.21,0.29-0.07,0.93-0.43,0.71
			c0,0.71-0.36,1.14-0.86,1.43c-0.29,1.57-1.57,3-2.29,4.43c-0.07,0-0.21,0-0.14-0.14c-0.14,0.07-0.43,0.36-0.21,0.5
			c-0.86,0.93-0.86,2.07-1.36,3c-0.07,1.36-0.43,1.93-0.79,3.07c-0.14,0.07-0.14,0.29-0.36,0.14c-0.07,1.29-0.71,2.93-0.71,4.29
			c0,0.14-0.07,0.21-0.29,0.21c0,0.14,0,0.21,0.14,0.21c0.07,0.29-0.21,0.21-0.29,0.43c-0.36,2.14-0.57,3.72-0.14,6
			c0,0.21-0.36,0.21-0.29,0.5c-0.36-0.14-0.36-0.36-0.71-0.07c-0.14-0.5-0.43-0.29-0.79-0.43c0-0.14,0-0.29,0-0.36
			c-0.14-0.07-0.14,0.07-0.36,0.07c-0.71-0.79-1.14-1.43-1.14-2.86c-0.14-3.36,0.43-7.15,0.71-10.79c0.07-0.07,0.14-0.14,0.29-0.14
			c0.5-5.86,2-11.79,3.5-17.37c-2.36,0.64-3.93,1.57-6.86,2.14c-0.14,0.14-0.36,0.14-0.43,0.36c-0.86,0.07-1.93,0.07-2.64-0.36
			c-0.57-1-1.86-2.07-1.14-3.57c1.14,0.21,2.07,0.79,3.22,0.57c2-0.36,4.15-1.36,5.93-1.5c0.14-0.07,0.21-0.29,0.29-0.43
			c0.29,0.07-0.07,0.14,0,0.36c0.93-0.29,1.57-1.14,2.36-0.64c0.71-1.57,0.93-3.65,1.79-5.36c0.21-1.57,0.86-2.5,1.21-4.22
			c0.93-2.29,1.21-5.07,2.14-7.08c0-0.07-0.07-0.14-0.07-0.21c0.64-2,0.86-3.93,1.5-6c-0.14-0.29,0.14-0.43-0.14-0.64
			c1.14-0.93-0.07-4.79,2.5-3.93c0,0.71,0.64,0.79,1,1.22c-0.36,0.43,0,1,0.36,1.29c-0.29,0.43-0.07,0.93-0.43,1.29
			c0.21,2.29-1.36,5.43-1.5,8.08c0,0.21-0.29,0.21-0.29,0.43c-0.07,0.21,0.07,0.21,0.07,0.43c-0.57,0,0.14,1-0.5,1
			c-0.07,0.29,0.14,0.29,0.07,0.5c-0.14,0.07-0.21,0.14-0.36,0.14c0.07,0.64,0,2.07-0.71,2.36c0.07,0.14,0.36,0.07,0.29,0.36
			c-0.07,0-0.07,0.14-0.07,0.29c-0.07,0-0.14-0.07-0.21-0.14c0.21,0.71-0.36,1.43-0.21,2.43c-0.57,0.64-0.64,1.93-1.21,2.93
			c-0.07,0.21,0.14,0.21,0.07,0.43c-0.14,0-0.07,0.21-0.21,0.14c0.14,0.64-1,1.86-0.64,2.93c1.86-0.64,3.93-0.86,5.5-1.57
			c0.57,0.29,1.43-0.07,2-0.5c0.71-2,1.86-4.07,2.86-5.57c0-0.07,0-0.14-0.07-0.14c1-1.14,1.36-2.93,2.43-4.07
			c0.07-0.64,0.36-1,0.86-1.29c-0.71,1.36-1.29,2.36-2,3.72c0.14,0.14,0.29,0,0.43,0c-0.29-0.86,1.14-0.86,0.71-1.86
			c0.14,0,0.21,0.07,0.36,0.14c-0.36-0.5,0.21-0.79,0.29-1.29c0.14,0,0.21,0,0.21,0.07c-0.14,0.07-0.21,0.14-0.21,0.29
			c0.14-0.07,0.21-0.14,0.21-0.29c0.21-0.21,0.21-0.21,0.07-0.5c0.5,0.07,0.57-0.5,0.36-0.71c0.43-0.14,0.57-0.36,0.5-0.93
			c0.36,0.21,0.5-0.43,0.57-0.79c0.43-0.21,0.5-0.79,0.86-1.07c0-0.36-0.29,0.07-0.21-0.29c0.29-0.21,0.57-0.43,0.86-0.57
			c0-0.29-0.29-0.21-0.21-0.5c0.07-0.07,0.14-0.07,0.14-0.21c0.07,0,0.14,0,0.14,0.21c0.14-0.5,0.36-0.93,0.57-1.43
			c0.29,0.14,0,0.36-0.07,0.43c0.21,0.07,0.29-0.07,0.29-0.21c0.36,0.5-0.64,0.64-0.36,1.07c-0.29,0.14-0.29,0.43-0.43,0.71
			c0.21,0.29,0.14-0.5,0.43-0.43c-0.21,0.21,0.21,0.14,0.07,0.5c-0.57,0.21-1.07,0.43-1.29,1.07c0.14,0.29,0.14-0.21,0.36-0.14
			c-0.14,0.5-0.43,1.22-0.86,1.07c-0.14,0.5-0.57,0.71-0.57,1.29c-0.29,0-0.29,0.29-0.36,0.5c0,0.29,0.21-0.29,0.21,0
			c0.14,0.14,0.14,0.21-0.07,0.29c-0.07-0.14-0.07,0,0,0c0,0,0,0.07,0,0.14c-0.14,0-0.21-0.07-0.14-0.29
			c-0.29,0-0.21,0.29-0.36,0.36c0,0.14,0.21,0.07,0.36,0.07c0,0.36-0.14,0.5-0.36,0.64c-0.14,0-0.21-0.07-0.14-0.29
			c-0.21,0.36-0.5,0.64-0.64,1.14c0.5,0.14,0.07-0.57,0.43-0.5c0.29,0.43-0.14,0.57-0.21,0.93c-0.07-0.29-0.64-0.14-0.57,0.21
			c-0.07,0.07-0.14,0.07-0.14,0.21c0,0.21,0.21-0.07,0.14-0.21c0.21,0,0.21-0.21,0.36-0.07c-0.07,0.43-0.36,0.64-0.43,1.07
			c-0.14-0.07-0.29-0.07-0.36-0.21c-0.21,0.07-0.21,0.43-0.43,0.64c0.07,0.14,0.43-0.14,0.36-0.36c0.21,0.57-0.14,1.07-0.57,1.07
			c-0.5,0.36-0.5,1-0.93,1.5c0.07,0.07,0.07,0.29,0.29,0.21c-0.07,0.5-0.43,0.43-0.64,0.64c0,0.07,0.14,0.07,0.21,0.07
			c-0.14,0.43-0.71,0.43-0.71,0.93c0.14,0.14,0.29,0,0.21-0.21c0.36,0.21-0.29,0.64-0.36,1c0,0,0,0-0.07,0c0-0.07,0-0.14-0.07-0.14
			c-0.43,0.29,0,1.14-0.57,1.43c0-0.36,0.21-0.5,0.21-0.86c-0.43,0.21-0.14,0.71-0.57,1c0.29,0.14,0,0.64-0.07,0.79
			c0.21,0,0.29-0.14,0.43-0.21c1.21,0.14,3-0.57,4.15-0.43c0.21-0.14,0.43-0.21,0.43-0.36c0.14-0.07,0.07-0.07,0-0.07
			c2.22-6.79,4-12.65,6.29-19.23c-0.36,0.21-0.43,0.71-0.71,1c-0.21-0.14,0.07-0.36,0-0.57c1.07-0.71,1.21-2.36,1.93-3.36
			c0-0.14-0.29-0.29-0.29-0.07c-0.29-0.29,0.64-0.64,0.21-0.79c0.5-0.29,0.29-1.29,0.86-1.57c-0.14-1,0.36-1.57,0.64-2.36
			c0.43-1.29,0.79-2.22,1.14-3.29c0.5-1.79,1.21-3.43,1.43-5.57c0.29-0.29,0.43-0.64,0.71-0.93c0.5,0,0.5,0.21,0.86,0
			c0,0.36,0.43,0.21,0.79,0.29c0.57,0.5,1.14,1.14,1.57,1.86c-0.64,2.14-1.14,4.29-1.93,6.08c-0.29,1.86-1.72,3.43-1.72,5.43
			c-0.14,0.14-0.21,0.29-0.43,0.36c0.07,1.22-0.79,1.64-0.64,2.64c-0.36,0.14-0.36,0.64-0.64,0.93c-0.07,0.36,0.14,0.5,0.07,0.86
			c-0.29,0.5-0.36,0.79-0.71,1.14c0.29,0.29,0,1.07-0.43,1.29c0.07,0.14,0.29,0.14,0.21,0.43c-0.36,0.07-0.43,0.36-0.5,0.64
			c-0.14,0-0.14,0.07-0.21,0.07C169.85,21.94,169.78,21.94,169.71,21.94z M139.05,69.61 M143.26,47.96
			c-1.93,6.86-3.36,14.15-4,21.51c1.21-7.29,2-14.51,4.22-21.37c-0.07-0.07-0.14-0.07-0.14-0.14c0.07,0,0.07,0,0.14,0
			c-0.07-0.29,0.07-0.21,0.07-0.43c-0.29-0.14-0.14,0.21-0.21,0.43C143.34,47.96,143.34,47.96,143.26,47.96z M139.33,64.9
			 M139.41,64.61 M139.48,64.18 M140.05,60.32c-0.07,0.64-0.14,0.93-0.28,1.5C140.12,61.47,140.26,60.68,140.05,60.32z
			 M139.91,62.11c0-0.07,0-0.14,0-0.21c0,0-0.07,0-0.14,0c0,0.07,0,0.14,0,0.21C139.83,62.11,139.91,62.11,139.91,62.11z
			 M140.19,60.04h0.07c0.21-1.93,0.79-3.5,0.71-5C140.69,56.68,140.33,58.32,140.19,60.04C140.05,60.11,140.19,60.11,140.19,60.04z
			 M140.48,56.68c0-0.07,0-0.07,0-0.14c-0.07,0-0.14,0-0.21,0c0,0.07,0,0.07,0,0.14C140.33,56.68,140.41,56.68,140.48,56.68z
			 M140.26,66.4 M140.33,65.18c0,0.14,0.07,0.64,0.21,0.36C140.33,65.54,140.76,65.11,140.33,65.18z M140.62,55.03 M140.62,64.04
			 M140.76,62.97c0.07-0.07,0.21,0,0.21-0.07C140.91,62.9,140.76,62.9,140.76,62.97z M141.19,54.82c0-0.07,0-0.14,0-0.21
			c0,0-0.07,0-0.14,0c0,0.07,0,0.14,0,0.21C141.12,54.82,141.19,54.82,141.19,54.82z M141.05,54.96 M141.33,60.82
			c0-0.07,0-0.14,0-0.21c-0.07,0-0.14,0-0.21,0c0,0.07,0,0.14,0,0.21C141.19,60.82,141.26,60.82,141.33,60.82z M141.19,53.96
			 M141.19,54.18 M141.19,63.18c0,0.29,0,0.57,0.21,0.64C141.41,63.54,141.55,63.25,141.19,63.18z M141.41,53.03
			c0,0.36-0.21,0.36,0,0.64C141.48,53.39,141.62,53.25,141.41,53.03z M141.55,52.32c0,0.14-0.07,0.21-0.07,0.36
			C141.69,52.82,141.69,52.32,141.55,52.32z M141.76,52.25c0-0.07,0-0.14,0-0.21c-0.07,0-0.14,0-0.21,0c0,0.07,0,0.14,0,0.21
			C141.62,52.25,141.69,52.25,141.76,52.25z M141.62,63.47 M141.76,57.96c-0.07,0.14-0.21,0.21,0,0.29
			C141.76,58.11,141.91,58.04,141.76,57.96z M141.76,60.39c0.07-0.07,0.14,0,0.14-0.07C141.83,60.32,141.76,60.32,141.76,60.39z
			 M141.83,51.75c0.14-0.21,0.14-0.57,0.07-0.71C141.83,51.25,141.69,51.46,141.83,51.75C141.69,51.75,141.83,51.82,141.83,51.75z
			 M143.76,52.46c0,0.14,0.07,0.21,0.21,0.29c0.07,0.36-0.29,0.36-0.21,0.71c-0.21-0.14-0.21-0.07-0.43,0.07
			c0.14,0.5,0,0.93-0.21,1.36c-0.36,2.07-0.57,3.93-0.93,5.43c0.07,0.86-0.57,2.22-0.29,2.86c1.72-3.5,3.79-7.5,5.58-11.29
			c0.21,0,0.29,0,0.36-0.14c0.14-0.07,0-0.14,0,0c-0.14,0-0.29,0-0.29-0.14c0.21-0.21,0.43-0.5,0.71-0.64
			c-0.21-0.21,0-0.57,0.14-0.86c-0.07,0.14,0.14,0.36,0.21,0.14c-0.21-0.07,0.07-0.5,0.14-0.64c0.14,0.29,0.29-0.29,0,0
			c0.36-0.79,0.93-1.07,1.14-1.86c-0.29-0.14-0.07-0.79,0.29-0.57c0-0.21-0.14-0.29-0.07-0.5c0.07-0.14,0.36-0.07,0.29-0.29
			c0.79-1.71,1.86-3.5,2.79-5.58c-2.07,0.64-3.65,0.93-5.58,1.57c0,0.14,0.14,0.14,0.14,0.36c-0.21-0.07-0.36,0.21-0.43,0
			c0.14,0,0.14-0.07,0.14-0.21c-0.43,0.14-0.93,0.14-1.21,0.36c-0.07,0.29,0.07,0.29,0.07,0.5c-0.71,1.29-0.93,2.57-1.29,4.36
			c-0.64,1.29-0.93,3.36-1.14,4.65c0-0.07,0.21-0.07,0.21,0c0.07,0.21,0,0.36-0.14,0.36C143.98,52.6,143.98,52.46,143.76,52.46z
			 M141.98,50.89 M141.98,59.11c0.07-0.07,0.21,0,0.21-0.07C142.12,59.04,141.98,59.04,141.98,59.11z M142.19,49.74
			c0.07,0.29-0.36,0.57-0.14,0.79C142.12,50.39,142.48,49.74,142.19,49.74z M142.05,58.32 M142.62,54.6c-0.14,0-0.21,0.07-0.29,0.21
			C142.48,54.82,142.55,54.75,142.62,54.6z M142.33,56.96c0,0.14,0,0.29,0.14,0.21C142.48,57.03,142.41,56.96,142.33,56.96z
			 M142.41,56.75 M142.69,47.74c-0.07,0.07-0.21,0.57,0,0.64C142.69,48.1,142.84,48.03,142.69,47.74z M142.76,54.89
			c0,0.29-0.14,0.43,0.07,0.57C142.84,55.18,143.05,55.03,142.76,54.89z M142.76,42.45 M142.76,47.6c0.07,0,0.14,0.14,0.14,0
			C142.91,47.53,142.76,47.46,142.76,47.6z M142.76,53.1 M142.84,54.53c0.07,0,0.21,0,0.21-0.07
			C142.98,54.46,142.84,54.46,142.84,54.53z M142.91,52.25c0,0.07-0.14,0.14,0,0.21C142.98,52.39,143.12,52.32,142.91,52.25z
			 M143.19,53.03 M143.19,53.46 M143.48,52.03 M143.62,46.81c0.21,0.14,0.29-0.29,0.07-0.21c0,0,0,0.07-0.07,0.07
			C143.62,46.74,143.62,46.74,143.62,46.81z M143.76,44.03 M143.76,46.31 M143.76,49.24c0.21,0.14,0.29-0.29,0.14-0.29
			c0,0.07-0.07,0.14-0.14,0.07C143.76,49.1,143.76,49.17,143.76,49.24z M143.76,49.46 M143.91,46.03 M143.91,50.24 M144.12,48.82
			c0-0.07,0.14,0.29,0.21,0.21C144.41,48.89,144.19,48.53,144.12,48.82z M144.34,44.74c0-0.07,0.14-0.07,0.14-0.14
			c-0.14-0.07-0.14-0.14-0.29,0C144.26,44.67,144.19,44.74,144.34,44.74z M144.55,44.31c0,0,0-0.07,0-0.14c-0.07,0-0.07,0-0.14,0
			c0,0.07,0,0.14,0,0.14C144.48,44.31,144.48,44.31,144.55,44.31z M144.41,48.03 M144.55,44.74c0.21,0.14,0.29-0.29,0.07-0.21
			c0,0,0,0.07-0.07,0.07C144.55,44.67,144.55,44.74,144.55,44.74z M144.55,46.67 M144.77,45.89 M144.98,46.74
			c-0.14,0-0.21,0.07-0.21,0.14C144.91,46.89,144.98,46.81,144.98,46.74z M144.91,46.39 M144.98,44.67c0,0.07,0,0.21,0,0.29
			C145.27,45.03,145.27,44.53,144.98,44.67z M145.05,45.81c0.07,0.14-0.07,0.14-0.07,0.36C145.27,46.24,145.27,45.74,145.05,45.81z
			 M145.19,44.24c0,0.07,0,0.21,0,0.29C145.41,44.6,145.41,44.1,145.19,44.24z M147.2,53.89c-0.07,0.07-0.21,0.14-0.14,0.43
			c-0.86,1-1.29,1.93-1.79,3.29c0.71-1.14,1.43-2.22,1.79-3.29c0.14-0.07,0.21-0.29,0.29-0.43c0,0,0.07,0,0.14,0
			c0-0.07,0-0.14,0-0.21c-0.14,0-0.14,0.07-0.14,0.21C147.27,53.89,147.27,53.89,147.2,53.89z M145.34,44.74 M145.48,43.24
			 M145.62,43.88c-0.07,0.07-0.21,0.5,0,0.57C145.69,44.38,145.77,43.96,145.62,43.88z M146.62,42.95 M146.7,41.45
			C146.55,41.45,146.7,41.52,146.7,41.45c0.07,0,0.07-0.07,0.07-0.14c0.43-0.07,0.43,0.14,0.21,0.29c0.64-0.5,1.36-0.93,2.14-0.79
			c0.21-0.36,0.64-0.14,1-0.43c0.07,0.07,0.07,0.14,0.07,0.29c0.29,0.07,0.21-0.21,0.36-0.21c0,0.07,0,0.07,0,0.14
			c0.29,0,0.21-0.36,0.5-0.29c0,0.07-0.07,0.21,0,0.29c0.14-0.29,0.21-0.29,0.57-0.21c-0.07-0.14-0.07-0.21,0.07-0.21
			c0,0.36,0.36,0,0,0c0.07-0.14,0.29-0.14,0.43-0.21c0,0.07,0,0.21,0,0.29c0.29,0.07,0.14-0.21,0.36-0.29c-0.07,0.36,0.29,0,0.43,0
			c0,0.14,0,0.21,0.14,0.29c0.07-0.21,0.29-0.21,0.5-0.07c0.07-0.36-0.14-0.5,0.07-0.64c0.14,0.14,0.14,0.21,0,0.36
			c0.43-0.07,0.29-0.57,0.57-0.79c-0.57-0.07-0.86,0.29-1.21,0.07c-1.36,0.5-3.07,0.93-4.29,1.21c-0.43,0.57-1.64,0.29-1.93,0.93
			C146.7,41.31,146.7,41.38,146.7,41.45z M147.12,53.75 M147.34,38.45 M147.34,39.88 M147.62,52.82
			C147.77,52.75,147.62,52.75,147.62,52.82C147.27,52.89,147.77,53.32,147.62,52.82z M148.05,42.6c-0.07,0-0.07-0.07-0.07-0.14
			c0.14-0.14,0.14-0.07,0.29,0C148.2,42.53,148.05,42.53,148.05,42.6z M149.12,50.67C149.27,50.6,149.12,50.6,149.12,50.67
			C148.98,50.75,149.12,50.82,149.12,50.67z M149.2,41.17 M149.34,50.46c0-0.14,0-0.21-0.14-0.21c0,0.14,0,0.29,0.07,0.29
			C149.27,50.46,149.27,50.39,149.34,50.46z M149.34,50.1 M150.05,49.03c-0.21,0-0.43,0.36-0.29,0.43
			C149.84,49.32,149.98,49.24,150.05,49.03z M150.48,46.74c0,0.07-0.14,0.21,0,0.29C150.48,46.89,150.63,46.81,150.48,46.74z
			 M150.55,40.45 M150.55,41.17 M150.91,46.6c0-0.14,0-0.21,0-0.29c-0.21,0-0.36,0-0.36,0.14C150.7,46.53,150.7,46.6,150.91,46.6z
			 M151.41,44.96c0.07,0.29-0.57,0.57-0.36,1C151.13,45.6,151.7,45.31,151.41,44.96z M151.27,47.31c0,0.14,0,0.29-0.21,0.29
			c0-0.07,0-0.14,0-0.14c0.07-0.07,0.14-0.07,0.14-0.14C151.2,47.31,151.2,47.31,151.27,47.31z M151.34,46.81
			c0,0.14-0.14,0.14-0.14,0.29C151.34,47.17,151.55,46.89,151.34,46.81z M152.63,42.74c-0.14,0.29-0.43,0.43-0.43,0.93
			c-0.29,0-0.21,0.29-0.29,0.5c-0.29,0.07-0.29,0.43-0.21,0.57c0.07-0.21,0.36-0.21,0.21-0.57c0.07,0,0.07,0,0.14,0
			c-0.07-0.29,0.14-0.29,0.14-0.5c0.29-0.21,0.43-0.57,0.5-0.93c0.36-0.5,0.64-1,0.86-1.57c-0.43,0.36-0.57,1-0.86,1.57H152.63z
			 M152.06,45.89 M152.2,44.96 M152.63,44.31c0.07,0,0.14,0,0.14-0.07C152.7,44.24,152.63,44.24,152.63,44.31z M152.7,43.31
			 M153.13,39.95 M153.49,40.88c0,0.07,0,0.14,0,0.21c0.14,0,0.14-0.07,0.14-0.21c0.07,0,0.07,0,0.14,0c0-0.07,0.07-0.21,0-0.21
			c-0.07,0.07-0.14,0.14-0.14,0.21C153.63,40.88,153.56,40.88,153.49,40.88z M153.49,41.88 M153.77,43.17 M154.49,39.31
			c-0.07,0.14-0.5,0.43-0.21,0.64C154.27,39.67,154.56,39.67,154.49,39.31c0.07,0,0.14-0.07,0.14-0.14c0.14,0,0.14-0.21,0.21-0.29
			c-0.21,0-0.43,0.14-0.21,0.29C154.56,39.17,154.49,39.24,154.49,39.31z M154.41,42.03c-0.21-0.07,0.14-0.21,0-0.43
			C154.77,41.52,154.41,41.88,154.41,42.03z M154.84,39.1 M155.2,38.02c0.14-0.07,0.36,0,0.36-0.14c-0.21-0.29,0.5-0.43,0.5-0.86
			c-0.57,0.14,0.14-0.36-0.14-0.5c-0.14,0.21-0.21,0.43-0.29,0.71C155.34,37.38,155.2,37.59,155.2,38.02z M155.34,39.1
			c0.29,0.07,0.21-0.21,0.36-0.21c-0.07,0.29-0.07,0.36,0.07,0.64c0.29,0,0.43,0,0.36-0.21c-0.14-0.07-0.29,0-0.36-0.14
			c0.07-0.07,0.14-0.14,0.29-0.14c-0.29,0.29,0.29,0,0.14,0.36c0.36-0.14,0.36-0.21,0.71-0.07c0.21-0.21,0-0.36,0.29-0.36
			c0.07,0,0.07,0.14,0.07,0.21c0.36-0.07,0.64-0.29,1-0.07c0-0.14,0-0.29,0.07-0.36c0.07,0.21,0.07,0.29,0.21,0.36
			c0.14-0.36,0.71-0.36,1-0.14c0.36-0.21,1-0.57,1.21-0.36c0.14-0.21,0.29-0.43,0.29-0.79c-1.43,0.21-2.64,0.21-3.86,0.71
			C156.7,38.45,155.49,38.45,155.34,39.1z M155.56,39.38 M155.7,37.24c0-0.07,0.07-0.14,0.07,0c0,0.07-0.07,0.14-0.14,0.14
			c0-0.07,0-0.07,0-0.14H155.7z M156.56,35.45c-0.36,0.14-0.36,0.64-0.57,1C156.42,36.31,156.42,35.81,156.56,35.45
			c0.14-0.29,0.43-0.29,0.36-0.71c0.14,0,0.14-0.21,0.36-0.14c-0.14,0.43,0.21,0.07,0,0c-0.14-0.14-0.14-0.21,0.07-0.29v0.07
			c0.21,0.07,0.36-0.29,0.14-0.36c-0.07,0.07,0,0.29-0.14,0.29c0.29-0.57,0.36-1.43,0.93-1.72c-0.07,0.36,0.29,0,0,0
			c0.07-0.14-0.07-0.14-0.07-0.29c0.36-0.21,0.29-0.29,0.71-0.43c0-0.21-0.14-0.21-0.14-0.5c0.29,0,0.29-0.21,0.57-0.21
			c-0.07-0.21-0.36-0.29-0.14-0.57c-1,1.36-1.64,2.57-2.29,4.15C156.63,34.81,156.56,35.09,156.56,35.45z M156.2,37.81
			c0-0.07,0-0.07,0-0.14c0,0-0.07,0-0.14,0c0,0.07,0,0.07,0,0.14C156.13,37.81,156.2,37.81,156.2,37.81z M156.2,36.52
			c0.07,0,0.21,0,0.21-0.07C156.34,36.45,156.2,36.45,156.2,36.52z M156.56,35.95 M156.77,36.88 M156.77,37.59 M156.92,35.31
			c0.14,0,0.21-0.14,0.29-0.21C156.99,35.09,156.92,35.16,156.92,35.31C156.63,35.38,156.99,35.66,156.92,35.31z M156.84,58.89
			 M157.06,55.75c-0.07,0.07,0,0.43-0.14,0.5C157.34,56.32,157.13,55.82,157.06,55.75z M157.06,64.04c0,0.07-0.21,0.36,0,0.36
			C156.99,64.25,157.34,64.11,157.06,64.04z M156.99,56.75 M157.06,62.97c-0.07,0.29,0.07,0.36-0.07,0.64
			C157.27,63.61,157.34,62.97,157.06,62.97z M157.2,65.04c0-0.07,0-0.14,0-0.21c-0.07,0-0.14,0-0.21,0c0,0.07,0,0.14,0,0.21
			C157.06,65.04,157.13,65.04,157.2,65.04z M159.2,49.32c0.57-1,0.29-2.36,1-3.14c-0.07-0.5,0.14-0.86,0.07-1.22
			c0.14-0.07,0.43,0.07,0.36-0.21c0.43-1.72,1.14-3.79,1.72-5.43c-0.14-0.07-0.14-0.14-0.29-0.14c-0.07,0.14-0.29,0.14-0.43,0.21
			c-0.36,1.29-1,2.5-1.14,4.22c-0.29,0-0.21,0.43-0.43,0.57c-0.86,3.86-1.79,7.15-2.57,10.58c0,1.5-0.14,3.07-0.43,4.5
			c0.36,1.29-0.36,2.64,0.21,3.64c0.14-5.15,0.29-8.72,1.93-12.86C159.35,49.74,159.27,49.6,159.2,49.32z M160.92,39.52
			c-1.43,5.36-3.22,10.65-3.72,15.94c1-5.79,2.43-10.22,4.07-16.01c0.14-0.07,0-0.14,0,0C161.13,39.38,161.06,39.52,160.92,39.52z
			 M157.34,35.95c-0.21,0,0-0.29,0-0.36h0.07C157.42,35.74,157.34,35.81,157.34,35.95z M157.49,64.25 M157.49,65.04 M157.63,65.18
			c-0.14,0.07-0.14,0.36-0.14,0.57C157.77,65.9,157.7,65.18,157.63,65.18z M157.49,66.54c0,0.07,0,0.21,0,0.29
			C157.77,66.9,157.77,66.4,157.49,66.54z M157.63,61.75 M157.77,62.68c0-0.07,0-0.07,0-0.14c-0.07,0-0.14,0-0.14,0
			c0,0.07,0,0.07,0,0.14C157.63,62.68,157.7,62.68,157.77,62.68z M157.63,63.54 M157.63,63.9 M157.63,64.61 M157.7,33.88
			c0.07,0,0.14,0,0.14-0.07C157.77,33.81,157.7,33.81,157.7,33.88z M158.63,53.6c-0.71,2-0.5,4.36-0.93,6.36
			c0.29,0-0.14,0.79,0.21,0.64c0.29-3.64,0.43-6.86,1.93-10.15c-0.21-1.36,0.79-2.14,0.43-3.22c-0.71,2.07-0.86,4.43-2,6.29
			C158.42,53.53,158.63,53.46,158.63,53.6z M157.92,33.38 M158.06,33.09c0.07,0,0.14,0,0.14-0.07
			C158.13,33.02,158.06,33.02,158.06,33.09z M158.27,64.47c0.07,0,0.07,0,0.07,0c0-0.21,0.07-0.5-0.14-0.5
			C158.2,64.18,158.2,64.4,158.27,64.47C157.92,64.54,158.27,64.9,158.27,64.47z M158.27,65.18c0-0.14,0-0.29-0.14-0.29
			c0,0.07,0,0.14,0,0.21C158.2,65.11,158.2,65.18,158.27,65.18z M158.27,66.11c0-0.07,0-0.07,0-0.14c-0.07,0-0.07,0-0.14,0
			c0,0.07,0,0.07,0,0.14C158.2,66.11,158.2,66.11,158.27,66.11z M158.34,63.11c0-0.07,0-0.07,0-0.14c0,0-0.07,0-0.14,0
			c0,0.07,0,0.07,0,0.14C158.27,63.11,158.34,63.11,158.34,63.11z M158.2,63.54c0,0.14,0,0.29,0.14,0.29
			C158.34,63.68,158.27,63.61,158.2,63.54z M158.27,61.75 M158.34,60.18c0.07,0.43-0.14,1.07,0,1.5
			C158.49,61.25,158.7,60.54,158.34,60.18z M158.56,33.45c0-0.07,0-0.14,0-0.14c-0.07,0-0.14,0-0.21,0c0,0,0,0.07,0,0.14
			C158.42,33.45,158.49,33.45,158.56,33.45z M158.34,33.88 M158.56,58.75c0,0.5-0.21,0.86,0,1.36
			C158.56,59.68,158.85,59.11,158.56,58.75z M158.77,57.89c0,0-0.07,0-0.14,0s-0.07,0-0.07,0.07c0.21,0.14-0.14,0.43,0,0.71
			C158.92,58.68,158.63,58.04,158.77,57.89z M158.56,34.16 M158.63,38.67 M158.77,55.03c0,0.14,0,0.29-0.07,0.36
			C158.99,55.53,158.99,55.03,158.77,55.03z M158.7,55.75 M158.92,56.68c-0.07,0.21-0.21,0.29-0.21,0.5
			C158.99,57.25,159.27,56.68,158.92,56.68z M158.77,54.6c0,0.07,0,0.14,0,0.21c0.07,0,0.14,0,0.21,0s0.07-0.07,0.07-0.07
			c-0.07-0.07-0.07-0.14-0.07-0.21c0.21-0.29,0.43-0.86,0.14-1.07c-0.07,0.29-0.21,0.57-0.14,1.07
			C158.92,54.53,158.92,54.6,158.77,54.6z M159.2,32.23c0.07,0.36-0.21,0.36-0.21,0.64c-0.21-0.14,0-0.5,0-0.64
			C159.06,32.23,159.13,32.23,159.2,32.23z M158.99,55.82c-0.14,0.14-0.14,0.36,0.14,0.36C159.13,56.03,159.06,55.89,158.99,55.82z
			 M158.99,56.46 M159.06,38.67 M159.2,54.75c0,0.29-0.29,0.64,0,0.86C159.2,55.39,159.49,54.82,159.2,54.75z M159.2,52.75
			c0.07,0.14,0.07,0.29,0.21,0.36C159.42,52.96,159.49,52.68,159.2,52.75z M159.2,57.61 M159.35,32.16
			c-0.29-0.07,0.07-0.21,0.07-0.36C159.63,31.88,159.27,32.02,159.35,32.16z M159.35,38.67 M159.35,54.39 M159.35,57.96
			 M159.42,52.6 M159.77,30.88c-0.07,0.07-0.14,0.07-0.29,0.07C159.42,31.45,159.99,31.02,159.77,30.88z M159.63,53.68
			c0-0.07,0-0.21-0.14-0.14c0,0.07,0,0.21,0.07,0.21C159.56,53.75,159.56,53.68,159.63,53.68z M159.63,52.46
			c0.14,0.29-0.21,0.64,0,0.79C159.7,52.89,159.99,52.53,159.63,52.46z M159.63,30.16 M159.63,54.6 M159.77,38.6 M159.92,50.1
			 M160.06,38.45 M160.35,48.53c0,0.36,0,0.79-0.29,0.93C160.42,49.53,160.7,48.6,160.35,48.53z M160.06,51.32 M160.2,50.89
			c0.07-0.07,0.14-0.07,0.14-0.14C160.27,50.82,160.2,50.75,160.2,50.89z M160.42,50.53c0.14-1,0.57-1.64,0.64-2.64c0,0,0,0,0.07,0
			c-0.14-0.29,0.21-0.57,0-0.71c0,0.29-0.14,0.36-0.07,0.71C160.85,48.53,160.35,49.53,160.42,50.53z M160.78,45.89
			c-0.21,0.36-0.36,0.86-0.36,1.29c0.07-0.21,0.14-0.64,0.43-0.36C160.78,46.46,160.7,46.31,160.78,45.89
			c0.07,0,0.07-0.07,0.07-0.07c0.36-0.14,0,0.36,0.36,0.21c-0.07-0.21-0.07-0.43-0.36-0.43c0,0.07,0,0.14,0,0.21
			C160.78,45.74,160.78,45.81,160.78,45.89z M160.63,47.96 M160.85,47.24c0.29,0-0.14-0.43-0.14-0.14
			C160.78,47.1,160.85,47.17,160.85,47.24C160.63,47.24,160.92,47.6,160.85,47.24z M160.85,45.38 M160.92,45.1
			c0.14,0,0.14,0.14,0.21,0C161.13,45.03,160.99,45.03,160.92,45.1z M160.92,46.6 M161.13,44.6c0,0.07-0.14,0.21,0,0.29
			C161.13,44.74,161.28,44.67,161.13,44.6z M161.13,26.73c0-0.07,0-0.21,0.07-0.21C161.2,26.59,161.2,26.73,161.13,26.73z
			 M161.28,44.53c0.07-0.29,0.21-0.36,0.29-0.64c0.29-0.14-0.29-0.21,0,0C161.2,43.81,160.99,44.46,161.28,44.53z M163.28,23.23
			c-0.86,0.93-1.29,2.22-2,3.29h-0.07c0.21-0.79,0.36-1.43,1-1.93c0.29-1.29,1.5-2.36,2.07-3.57c0.21,0.29-0.36,0.64-0.36,1.14
			C163.63,22.37,163.42,22.8,163.28,23.23z M161.2,45.31 M161.2,46.81 M161.28,28.16 M161.28,44.88 M161.49,45.89
			c-0.14,0.36-0.07,0.36-0.21,0.79C161.63,46.53,161.63,46.1,161.49,45.89z M161.28,48.46 M161.35,36.81c0-0.07,0-0.07,0-0.07
			C161.28,36.74,161.35,36.81,161.35,36.81z M161.63,43.24c0.36,0.21-0.36,0.07-0.29,0.36C161.85,43.96,162.13,42.95,161.63,43.24z
			 M161.78,37.74c-0.07,0-0.14,0-0.21,0c-0.07,0.36-0.29,0.71-0.07,0.93C161.42,38.45,161.78,38.17,161.78,37.74z M161.56,28.16
			c-0.14-0.07,0-0.21,0-0.29C161.7,27.95,161.56,28.02,161.56,28.16z M161.7,45.74c0-0.14,0-0.21-0.14-0.21c0,0.14,0,0.29,0.07,0.29
			C161.63,45.74,161.63,45.67,161.7,45.74z M161.63,27.45 M161.78,44.31c0,0,0-0.07,0-0.14c0,0-0.07,0-0.14,0c0,0.07,0,0.14,0,0.14
			C161.7,44.31,161.78,44.31,161.78,44.31z M161.7,45.38C161.99,45.31,161.63,45.03,161.7,45.38
			C161.56,45.38,161.7,45.46,161.7,45.38z M161.99,43.67c-0.14,0-0.21,0.07-0.29,0.14C161.85,43.81,161.92,43.74,161.99,43.67z
			 M161.78,38.52 M161.78,42.31 M162.06,44.24c-0.07,0.07-0.36,0.29-0.07,0.36C161.99,44.53,162.35,44.31,162.06,44.24z
			 M161.92,36.95c1.43-3.29,2.07-6.5,3.43-10.08c-0.14-0.07-0.07-0.21-0.14-0.29c0.36,0,0.43-0.64,0.29-0.86
			c-0.21,0.14-0.21,0.57-0.29,0.86C163.92,30.02,162.71,34.02,161.92,36.95z M161.92,42.6 M162.42,38.6
			c0.07-0.29,0.5-0.71,0.21-1.14c-0.07,0.21-0.5,0.14-0.64,0.36C161.99,38.17,162.2,38.38,162.42,38.6z M161.99,41.67 M162.06,41.45
			c0.21,0,0.5,0,0.43-0.29c-0.14-0.14-0.29-0.14-0.43,0C162.06,41.24,162.06,41.31,162.06,41.45z M162.13,42.45
			c0,0.07,0,0.14,0,0.29C162.42,42.81,162.42,42.31,162.13,42.45z M162.35,43.81c-0.07-0.07-0.07-0.21-0.21-0.14
			c0,0.07,0,0.21,0.07,0.21C162.2,43.88,162.28,43.81,162.35,43.81z M162.2,41.88c0.21,0-0.29,0.36,0.14,0.43
			C162.49,42.24,162.42,41.52,162.2,41.88z M162.56,26.3c0.07,0.14-0.5,0.14-0.36-0.07C162.42,26.23,162.42,26.37,162.56,26.3z
			 M162.2,38.17 M162.49,40.88c0-0.14-0.07-0.14-0.29-0.14c0,0.07,0,0.14,0,0.14C162.35,40.88,162.42,40.88,162.49,40.88z
			 M162.56,42.88c-0.14,0-0.29,0.07-0.21,0.29C162.56,43.17,162.49,42.95,162.56,42.88z M162.56,25.87c-0.07,0.07,0,0.36-0.21,0.29
			v-0.07C162.42,26.09,162.42,25.87,162.56,25.87z M162.56,40.45c0-0.07,0.07-0.07,0.07-0.14c-0.07,0-0.07-0.14-0.21-0.07
			c0,0.07,0,0.14,0,0.21C162.49,40.45,162.49,40.45,162.56,40.45z M162.49,42.45c0,0.07,0,0.14,0,0.29
			C162.71,42.81,162.71,42.31,162.49,42.45z M162.63,24.52c-0.07,0,0,0.07,0,0.07S162.63,24.59,162.63,24.52z M168.78,19.44
			c-0.07,0-0.07,0-0.14,0c-0.5,1.07-0.57,2.57-1.43,3.29c-0.5,2.22-1.72,4.5-2.14,6.86c-0.14,0.14-0.29-0.14-0.36,0.14
			c0,0.29-0.07,1.21-0.5,1.29c-0.07,0.29,0.14,0.29,0.14,0.43c-0.64,1.72-1.21,3.72-1.71,5.36c0.14,0,0.29,0,0.43,0
			c0-0.5,0.29-0.71,0.57-0.86c-0.71-0.43,0.5-1.22,0.14-1.64c0.14-0.07,0.21-0.07,0.36,0c0-1,0.36-1.5,0.5-2.5c0.07,0,0.14,0,0.29,0
			c0-0.21-0.21-0.14-0.21-0.21c0.43-0.14,0.07-0.64,0.5-0.79c-0.36-0.21,0.21-0.57,0.29-0.79c-0.36-0.43,0.21-1.14,0.43-1.86
			c0.21-0.71,0.29-1.36,0.5-1.64c0,0,0.21,0.07,0.29,0.07c0.5-0.29,0.43-1.72,0.57-2.22c-0.07,0.5-0.43,1.07-0.57,1.5
			c-0.07,0.21,0.14,0.57-0.29,0.43C167.06,23.94,168.21,21.66,168.78,19.44c0.07,0,0.07-0.07,0.07-0.14c0.5-0.5,0.29-1.21,0.64-1.72
			c-0.43,0.29-0.5,1.07-0.64,1.72C168.78,19.3,168.78,19.37,168.78,19.44z M162.85,25.87c-0.14,0-0.14-0.14-0.21-0.29
			c0.07,0,0.07,0,0.14,0C162.78,25.66,162.85,25.73,162.85,25.87z M162.85,37.02c0,0,0-0.07,0-0.14c-0.07,0-0.14,0-0.21,0
			c0,0.07,0,0.14,0,0.14C162.71,37.02,162.78,37.02,162.85,37.02z M162.92,39.74c0-0.14,0-0.36-0.07-0.36
			c0,0.14-0.21,0.07-0.21,0.36C162.78,39.74,162.85,39.74,162.92,39.74z M162.92,41.67c-0.07,0-0.21,0-0.29,0.07
			c0.14,0,0.07,0.21,0.29,0.21C162.92,41.88,162.92,41.74,162.92,41.67z M162.63,43.6 M162.78,25.59 M162.78,40.67 M162.99,42.6
			c0,0.14-0.29,0.5-0.07,0.64C162.92,43.1,163.21,42.74,162.99,42.6z M162.85,25.3 M162.85,39.95 M162.92,24.01 M163.06,24.52
			c0.07,0,0.21,0,0.21-0.07C163.21,24.44,163.06,24.44,163.06,24.52z M163.06,40.74 M163.49,41.6c-0.07-0.14-0.36-0.07-0.29,0.14
			C163.35,41.81,163.49,41.74,163.49,41.6z M163.21,42.1 M163.35,40.02c0.29,0,0.29-0.43,0.07-0.5
			C163.35,39.67,163.35,39.81,163.35,40.02C163.21,40.1,163.35,40.17,163.35,40.02z M163.42,38.17c-0.07-0.29,0.36-0.5,0.07-0.72
			C163.49,37.67,163.21,38.02,163.42,38.17C163.49,38.31,163.56,38.17,163.42,38.17z M163.71,39.31
			C163.85,39.24,163.71,39.17,163.71,39.31C163.35,39.17,163.71,39.52,163.71,39.31z M164.06,23.73c-0.43,0.07-0.29-0.36,0-0.43
			C164.06,23.44,164.06,23.59,164.06,23.73z M164.06,40.6c0,0.07-0.14,0-0.21,0.07C163.85,40.6,163.99,40.6,164.06,40.6z
			 M163.92,38.09 M164.06,23.3 M164.06,31.73 M164.06,35.74 M164.21,37.74c0-0.14,0.14-0.14,0.07-0.29c-0.07,0-0.14,0-0.21,0
			c0,0.14,0,0.21,0,0.29C164.06,37.74,164.13,37.74,164.21,37.74z M164.13,38.09 M164.35,37.31c0-0.07,0-0.14,0-0.14s-0.07,0-0.14,0
			c0,0,0,0.07,0,0.14C164.28,37.31,164.35,37.31,164.35,37.31z M164.35,34.66 M165.56,19.8c0-0.21-0.29,0-0.21,0.07
			c-0.43-0.07-0.57,0.79-0.86,1.07c-0.29-0.5,0.5-0.79,0.5-1.29c0.57-0.07,0.64-0.21,0.93-0.43c0-0.21-0.5,0.07-0.36-0.29
			c0.36,0,0.29-0.79,0.43-1c0.64-0.07,0.64-1.14,1.14-1.64c0.21-0.29,0.5-0.21,0.57-0.43c0.07-0.07-0.14-0.21-0.14-0.29
			c0-0.07,0-0.14,0.07-0.21c0.07,0,0.14,0,0.14,0c-0.07,0.36,0.29,0,0,0c0-0.36,0.43-0.5,0.64-0.79c-0.5,1.36-1.43,2.64-2.36,3.93
			c0.07,0.14,0.14,0.21,0.29,0.21c-0.43,0.5-0.36,1.5-1.21,1.72c0.07-0.21,0.14-0.36,0.21-0.57
			C165.42,19.87,165.56,19.94,165.56,19.8z M164.63,36.59c0-0.07,0-0.21-0.14-0.14c0,0.07-0.07,0.21,0.07,0.29
			C164.56,36.67,164.56,36.59,164.63,36.59z M164.56,36.38 M164.56,37.59 M164.63,22.01c0.07-0.14,0.29-0.21,0.43-0.07
			c-0.07,0.14-0.36,0.14-0.36,0.36h-0.07C164.63,22.23,164.63,22.16,164.63,22.01z M164.63,35.74 M165.13,34.23
			c-0.07,0.29-0.36,0.79-0.43,1.36C165.21,35.38,165.49,34.45,165.13,34.23z M164.78,33.52C165.06,33.52,164.71,33.16,164.78,33.52
			C164.71,33.59,164.85,33.66,164.78,33.52z M164.78,36.59 M164.92,36.09c-0.07,0.21,0,0.36,0.14,0.36
			C165.06,36.31,165.13,36.02,164.92,36.09z M164.99,37.38c-0.07,0.29-0.14,0.71,0.07,0.71c1.79-0.64,4.07-0.36,6.15-0.29
			c-0.14-0.64-1.14-0.36-1.5-0.36c0-0.07,0-0.07,0.07-0.07c-0.14-0.36-0.86,0.21-1.14-0.21c0,0.14-0.29,0-0.21,0.21
			C167.35,37.17,166.42,37.31,164.99,37.38z M164.92,33.88 M164.99,21.58c0.43-0.64,0.79-1.36,1.21-2
			C165.99,20.23,165.56,21.23,164.99,21.58z M165.21,35.09c0.07,0.36-0.14,0.57-0.21,0.86C165.28,35.95,165.49,35.09,165.21,35.09z
			 M165.13,20.66 M165.35,33.73c-0.14,0.07-0.14,0.43,0.14,0.43C165.42,33.95,165.63,33.59,165.35,33.73z M165.49,19.37
			c-0.07,0-0.14,0-0.14,0c0-0.07,0.07-0.14,0.07-0.21C165.56,19.15,165.56,19.23,165.49,19.37z M165.49,34.81
			c0.14-0.07,0.14-0.21,0.29-0.36C165.49,34.45,165.49,34.59,165.49,34.81C165.35,34.88,165.49,34.95,165.49,34.81z M165.56,25.66
			c0.29-0.57,0.5-1,0.5-1.64c0.36-0.29,0.5-1,0.57-1.29c-0.36,0.29-0.5,0.71-0.57,1.29C165.78,24.3,165.49,25.09,165.56,25.66z
			 M165.92,33.45c-0.29-0.07-0.21,0.29-0.36,0.43C165.99,34.02,165.78,33.52,165.92,33.45z M165.78,34.23
			c-0.07-0.14-0.07-0.21-0.21-0.21c0,0.14,0,0.29,0.07,0.29C165.63,34.23,165.71,34.16,165.78,34.23z M166.21,32.23
			c-0.14,0.36-0.29,0.71-0.36,1.07C166.14,33.16,166.35,32.52,166.21,32.23z M166.28,27.45c0,0.29-0.43,0.57-0.21,0.79
			C166.14,28.02,166.64,27.52,166.28,27.45z M166.06,31.38 M166.85,29.66c-0.07,0-0.14,0-0.21-0.07c-0.29,0.21-0.14,0.79-0.36,1
			C166.85,30.52,166.64,29.95,166.85,29.66z M166.42,19.37c-0.21-0.14,0.14-0.43,0.21-0.57C166.85,18.94,166.42,19.15,166.42,19.37z
			 M166.85,21.73c-0.07,0.14-0.21,0.36-0.21,0.64C166.92,22.3,167.14,21.8,166.85,21.73z M166.64,22.66 M166.78,28.87
			c-0.07,0.07-0.07,0.21-0.07,0.36c0.21,0.07,0.14-0.21,0.14-0.36c0.14-0.07,0.43,0,0.43-0.21c-0.14,0-0.07-0.29-0.36-0.21
			c0.07,0.21-0.14,0.21-0.07,0.43H166.78z M166.78,28.23 M166.85,21.58c0.43,0,0.29-0.5,0.43-0.71c0.5-1.14,1.07-2.29,1.14-3.65
			c-0.36,1.29-0.79,2-1.14,3.65C167.06,21.01,166.99,21.37,166.85,21.58z M166.92,29.52c0,0.14,0.07,0.29,0.21,0.36
			c0.14-0.14,0-0.5,0.14-0.64C166.99,29.16,167.21,29.52,166.92,29.52C166.92,29.38,166.85,29.52,166.92,29.52z M167.06,17.58
			 M167.28,17.22 M167.28,17.22 M167.28,27.52c0.43,0,0.21-0.64,0.64-0.57c-0.07,0.14-0.36,0.5-0.14,0.64
			c0.21-0.21,0.21-0.64,0.29-0.93c-0.29,0.07-0.14-0.21-0.14-0.36c0.07,0.14,0.21,0.14,0.29,0c0.14-0.29-0.14-0.29-0.21-0.43
			c0.14-0.14,0.07,0,0.36,0c-0.21-0.29,0-0.29,0.07-0.57c-0.21,0-0.29,0.14-0.36-0.07c0.21,0,0.21-0.21,0.14-0.43
			c-0.29,0.43-0.36,0.93-0.29,1.5C167.42,26.44,167.49,27.16,167.28,27.52z M167.35,27.8c0,0.14,0.07,0.21,0.21,0.21
			c0-0.14-0.07-0.14-0.07-0.21c0.07-0.07-0.07-0.14,0,0C167.42,27.8,167.42,27.8,167.35,27.8z M167.35,38.02 M167.49,24.09
			c0,0,0,0,0.07,0c0-0.14,0.14-0.21,0.14-0.43C167.49,23.66,167.49,23.87,167.49,24.09C167.35,24.16,167.49,24.23,167.49,24.09z
			 M167.56,15.58 M167.56,23.51c0.07-0.07,0.14,0,0.14-0.07C167.64,23.44,167.56,23.44,167.56,23.51z M167.56,37.45 M167.64,16.58
			c0.07-0.14,0.07-0.21,0.14-0.29C167.78,16.44,167.85,16.58,167.64,16.58z M167.64,38.02 M167.78,16.3 M167.78,27.95 M167.99,22.8
			C168.21,22.8,167.92,22.44,167.99,22.8C167.85,22.87,167.99,22.94,167.99,22.8z M168.35,21.73c-0.07,0.21-0.14,0.43-0.21,0.64
			C168.42,22.37,168.42,21.8,168.35,21.73z M168.21,24.44 M168.49,24.87c0-0.07,0-0.14,0-0.14c-0.07,0-0.14,0-0.14,0s0,0.07,0,0.14
			C168.35,24.87,168.42,24.87,168.49,24.87z M168.42,37.38 M168.57,20.87 M168.92,23.66c-0.21-0.36,0.43-1.07,0-1.21
			c-0.07,0.43-0.14,0.86-0.36,1.14C168.71,23.59,168.85,23.94,168.92,23.66z M168.57,24.3c0,0.14,0,0.29,0.21,0.29
			C168.71,24.44,168.85,24.16,168.57,24.3z M168.64,16.8c0.21-0.29,0.71-1,0.43-1.36C168.92,15.87,168.78,16.3,168.64,16.8
			C168.57,16.87,168.71,16.94,168.64,16.8z M168.78,20.73c0.29-0.14,0.29-0.64,0.43-1.07c0.07-0.07-0.07-0.14,0,0
			C168.92,19.87,168.85,20.37,168.78,20.73z M168.85,24.09 M169.07,22.16 M169.07,23.66 M169.28,15.01 M169.28,19.23 M169.42,22.87
			c0-0.07,0.07-0.07,0.07-0.14c-0.07,0-0.07-0.07-0.14-0.07c0,0.07-0.07,0.07-0.07,0.14C169.35,22.8,169.35,22.87,169.42,22.87z
			 M169.42,18.8c-0.43,0.43,0.43-0.14,0-0.07V18.8z M169.42,21.8c0.36-0.93,0.93-2.14,0.93-3.07c-0.21,0.57-0.57,1-0.5,1.72
			C169.57,20.8,169.21,21.37,169.42,21.8z M169.64,14.29c0,0,0-0.07,0-0.14c-0.07,0-0.14,0-0.21,0c0,0.07,0,0.14,0,0.14
			C169.5,14.29,169.57,14.29,169.64,14.29z M169.64,16.8c-0.07,0.29-0.21,0.36-0.21,0.64C169.71,17.37,169.85,16.94,169.64,16.8z
			 M169.64,22.23c-0.07,0.07-0.21,0.14,0,0.21C169.64,22.37,169.78,22.3,169.64,22.23z M169.64,18.08c0,0.14-0.07,0.36,0.07,0.36
			C169.78,18.3,169.78,18.08,169.64,18.08z M169.64,37.45c0,0.14,0.07,0.07,0.07,0C169.64,37.45,169.64,37.45,169.64,37.45z
			 M169.71,16.72 M169.78,21.73 M169.85,16.3 M170.07,15.94 M170.21,20.44c0.29-0.07,0.36-0.43,0.36-0.79c0.14-0.07,0-0.14,0,0
			C170.35,19.8,170.28,20.16,170.21,20.44z M170.21,37.59 M170.28,16.22 M171.07,13.15c0-0.07,0-0.14,0-0.21c-0.07,0-0.14,0-0.14,0
			c0,0.07,0,0.14,0,0.21C170.92,13.15,171,13.15,171.07,13.15z M170.92,36.59 M171,12.58 M171.07,14.01 M171.07,18.58 M171.14,37.59
			 M171.35,13.29 M171.35,17.08c0.07,0,0.07,0.07,0.14,0C171.5,17.01,171.35,16.94,171.35,17.08z M171.57,16.44
			c0.07,0.21-0.21,0.29,0,0.36C171.64,16.72,171.78,16.44,171.57,16.44z M171.64,37.88c0.07,0.07,0.21,0.14,0.36,0.14
			c0.07-0.29-0.14-0.21-0.36-0.21c0-0.14-0.07,0,0,0C171.64,37.88,171.64,37.88,171.64,37.88z M172.21,18.01 M172.35,17.58"/>
		<path class="icon0 st3" d="M173.28,42.6c1.21-1.5,2.57-2.86,4.79-3.36c0.36,0.14,0.64,0.29,0.79,0.57c1.79,0.29,2.72,1.36,4.07,2.07
			c1.71,4.43-1.86,8.15-3.86,11.08c-1.86,0.57-3.57,1.64-5.43,0.86c-2.86-3-1.64-7.43,0-10.51
			C173.35,43.24,173.42,42.81,173.28,42.6z M174.07,51.25c0.5,0.07,0.93-0.07,1.36-0.07c2.64-1.93,4.65-4.65,5.15-8.43
			c-0.14-0.36-0.21-0.71-0.43-1c-0.71-0.14-0.71,0.5-1,0.86C175.93,43.74,174.14,47.24,174.07,51.25z M180.43,44.38
			c0.07,0.21-0.29,0.43,0,0.5C180.43,44.74,180.79,44.38,180.43,44.38z M180.64,43.45 M180.86,42.74"/>
		<path class="icon0 st3" d="M211.02,38.95c0.21,0.14,0.57,0.29,0.36,0.57c0.14,0.07,0.43,0,0.5,0.14c0.07,1.21-0.43,1.86-0.71,2.72
			c-0.21,0.07-0.21-0.14-0.43-0.07c-0.07,0.29,0.29,0.07,0.29,0.29c-0.07,0.29-0.14,0.5-0.5,0.5c0.29,0.64-0.07,1.93-0.79,2.57
			c0.21,0.07,0.29,0.36-0.07,0.36c0.43,0.43-0.29,1-0.14,1.5c-0.14,0.07-0.07,0.21-0.07,0.36c-0.29,0.07-0.43,0.21-0.57,0.43
			c0.14,0.14,0.36-0.21,0.57,0.07c-0.21,0.14-0.43,0.21-0.71,0.21c0.43,0.29-0.07,0.43,0.29,0.86c-0.14,0-0.21,0.07-0.29,0.14
			c-0.14,0.29,0.29,0.07,0.14,0.36c-0.21-0.07-0.36,0.5-0.71,0.57c0,0.36,0.21,0,0.43,0.21c-0.29,0.29-0.29,0.86-0.71,1
			c0.07,0.29,0.14,0.36,0.14,0.43c0,0.14-0.21,0.07-0.29,0.07c0.21,1.36-0.43,3-0.79,4c0,0.21,0.21,0.21,0.36,0.29
			c-0.36,0.14-0.21,0.64-0.43,0.79c0.36,0.79-0.14,2.14,0.14,3c1-0.29,0.29,1.79,1.57,1.71c-0.14,0.36,0.21,0.29,0.14,0.5
			c-1.57,1.36-2.79-1.07-3.79-1.93c-0.07-0.14-0.07,0,0,0v0.14c-2.43-3.79,0.29-9.08,0.86-12.79c-1.93,2.43-6.29,7.58-8.79,2.72
			c-0.14,0-0.07,0.21-0.29,0.14c-0.71-1.5-0.21-3.07-0.14-4.86c-2.93,3.57-4.86,8.22-8.58,10.94c-5.15-0.86-2.36-7.15-1.43-10.72
			c0.21-2.72,0.93-4.5,2-6.86c1.07-1.36,3.15,0.43,3,1.93c-0.21,2.07-2.14,7.58-3.14,10.43c-0.14,0.07,0,0.14,0,0
			c1.36-1.14,1.93-2.72,3.14-3.79c0.71-1.71,2.07-2.72,2.86-4.22c0.93-0.43,1.07-1.79,2.72-1.57c-0.07,0.21,0.14,0.21,0.07,0.43
			c0.29,0.07,0.64-0.14,0.43,0.21c0.5-0.14,0.79-0.21,1.29-0.14c0.14,0.29-0.29,0.07-0.21,0.21c0.14,0.21,0.5,0.21,0.71,0.36
			c0.07,0.57-0.14,1.07,0.36,1.21c-0.14,0.93-0.21,1.43,0.07,2.22c-0.57,0.57-0.29,2.29-0.5,3.29c2-1,3.14-2.79,4.57-4.36
			c-0.07-0.14-0.14,0-0.29,0c1.93-1.5,2.93-4,4.72-5.72c0-0.57,0.36-0.79,0.5-1.29c0.29,0.07,0.57,0.14,0.79,0.21
			c0,0.29-0.14,0.36-0.21,0.5c0.21,0.29,0.14-0.21,0.43-0.14c-0.07,0.21,0.07,0.29,0.21,0.14C210.38,39.6,210.73,39.1,211.02,38.95z
			 M188.72,49.39 M190.22,50.96c0.57-0.29,0.64-1.14,1.21-1.43c0.07,0.21-0.43,0.36,0,0.36c0.14-0.43,0.71-0.64,0.5-1.21
			c1.07-0.21,1.07-1.86,2.22-2.43c-0.14,0.14-0.14,0.36,0.07,0.36c0.57-1.14,1.57-1.86,2.36-2.93c-0.36,0.07-0.43-0.07-0.43-0.21
			c0.29-0.07,0.21-0.21,0.5-0.07c-0.14-0.29,0-0.64-0.07-0.79c-1.36,0.64-1.79,2.14-2.93,2.72
			C192.87,47.46,191.29,48.89,190.22,50.96z M191.01,50.46 M191.72,49.1 M193.22,47.89c0.21,0.14,0.21-0.29,0.07-0.21
			c0,0,0,0.07-0.07,0.07C193.22,47.81,193.22,47.81,193.22,47.89z M193.58,47.53c0.14-0.14,0.21-0.43,0.29-0.64
			c0.29,0-0.07-0.36,0,0C193.72,46.96,193.37,47.39,193.58,47.53z M194.29,46.24c-0.14,0-0.14-0.21-0.14-0.43
			c0.07,0.07,0.14,0,0.14-0.07C194.51,45.96,194.51,46.1,194.29,46.24z M194.44,45.17 M194.51,45.67c0.07-0.43,0.36-0.71,0.57-0.93
			C195.44,45.03,194.72,45.46,194.51,45.67z M195.44,43.24c0,0,0-0.07,0-0.14c-0.07,0-0.14,0-0.14,0c0,0.07,0,0.14,0,0.14
			S195.37,43.24,195.44,43.24z M195.44,44.46 M195.58,44.1c0.14-0.14,0.29-0.36,0.64-0.29C196.22,44.1,195.87,44.38,195.58,44.1z
			 M196.8,47.1 M197.08,46.67c0-0.07-0.07-0.14-0.21-0.14c0.07,0.07,0,0.21,0.14,0.29C197.01,46.74,197.01,46.67,197.08,46.67z
			 M197.08,48.24 M198.44,46.39 M200.08,44.74 M200.73,50.24c0.21-0.07,0.36-0.21,0.57-0.29c-0.36-0.36,0.29-0.43,0.21-0.79
			c-0.43,0.14-0.79,0.43-0.93,0.86C200.66,50.1,200.73,50.17,200.73,50.24z M201.01,49.24 M206.44,43.03c0-0.07,0.07-0.07,0.07-0.21
			c-0.21,0-0.36,0.07-0.36,0.29c0,0.07,0.14,0.07,0.14,0.14c-0.14,0.21-0.14,0.57-0.5,0.57c0-0.07,0.07-0.14,0.07-0.21
			c-0.29,0.14-0.57,0.29-0.57,0.71c0.29,0,0.14-0.5,0.5-0.43c-0.57,0.93-1.21,2.07-2.07,2.5c0.14-0.07,0.21,0.07,0.21,0.14
			c-0.79,0.71-1.29,1.36-2,2.21c0.64-0.07,0.64-0.71,1.22-0.86c-0.07,0.14-0.21,0.29-0.29,0.43c0.36,0,0.29-0.36,0.57-0.5
			c0.14,0.21,0.07,0.07,0.43,0.07c0-0.21-0.21-0.14-0.21-0.36c0.29,0,0.29-0.71,0.64-0.43c-0.07,0.14-0.21,0.14-0.21,0.29
			c0.14-0.07,0.43,0,0.5-0.14c-0.21-0.21-0.07-0.36,0.21-0.21c0-0.07,0-0.21,0-0.36c-0.14-0.21-0.29,0.36-0.43,0
			c0.36-0.14,0.36-0.57,0.86-0.5c0-0.36,0.36-0.43,0.64-0.57c0.07-0.29-0.21-0.29-0.29-0.43c0.14-0.14,0.21-0.36,0.5-0.43
			c0.07,0,0.07,0.14,0.07,0.21c0.43-0.14,0.5-0.64,0.93-0.86c-0.21-0.36,0.5-0.57-0.07-0.86c0.5,0,0.57-0.5,0.43-1
			c0.43-0.21,0.43-0.79,0.57-1.21c-0.79,0.14-1.14,1.14-1.36,1.64c0.14-0.14,0.14-0.36,0.36-0.43
			C207.02,42.74,206.73,42.88,206.44,43.03z M202.73,47.46 M202.73,48.67 M203.44,48.39 M204.3,46.46c0,0.07-0.07,0.07-0.14,0.07
			C204.16,46.46,204.23,46.46,204.3,46.46z M204.16,46.53 M204.3,46.46 M204.73,45.24c-0.14,0-0.21,0.07-0.29,0.14
			C204.59,45.46,204.66,45.38,204.73,45.24z M204.59,57.25c0.14,0.07,0.36,0.07,0.57,0.07C205.23,57.03,204.59,57.11,204.59,57.25z
			 M204.8,57.75c0-0.07,0-0.07,0-0.14c-0.07,0-0.14,0-0.21,0c0,0.07,0,0.07,0,0.14C204.66,57.75,204.73,57.75,204.8,57.75z
			 M204.8,55.82 M204.8,56.25 M204.87,44.81 M205.16,57.53c-0.07,0-0.14,0-0.21,0c0,0.07-0.07,0.07-0.07,0.14
			C205.01,57.68,205.16,57.68,205.16,57.53z M205.23,54.32c0-0.07-0.07-0.21-0.21-0.14c0.07,0.07,0,0.21,0.14,0.21
			C205.16,54.39,205.16,54.32,205.23,54.32z M205.23,56.39c0-0.07,0-0.14,0-0.14c-0.07,0-0.14,0-0.21,0c0,0,0,0.07,0,0.14
			C205.09,56.39,205.16,56.39,205.23,56.39z M205.16,53.39c0.07,0.29-0.29,0.43,0,0.5C205.16,53.75,205.52,53.39,205.16,53.39z
			 M205.3,55.89c0-0.14,0-0.21,0-0.36c-0.07,0-0.14,0-0.14,0c0,0.14,0,0.21,0,0.36C205.16,55.89,205.23,55.89,205.3,55.89z
			 M205.3,53.25 M205.37,54.53c-0.07,0.21,0.07,0.21-0.07,0.43C205.59,55.03,205.73,54.46,205.37,54.53z M205.3,55.1 M205.59,52.89
			c-0.07-0.14-0.07-0.21-0.21-0.21c0,0.14,0,0.29,0.07,0.29C205.44,52.89,205.52,52.89,205.59,52.89z M205.44,52.46 M205.44,54.32
			 M205.44,57.53c0.21,0.14,0.29-0.29,0.14-0.29c0,0.07-0.07,0.07-0.14,0.07C205.44,57.39,205.44,57.46,205.44,57.53z M205.73,52.89
			c0,0.29-0.21,0.86-0.07,1C205.73,53.75,206.09,52.96,205.73,52.89z M205.8,51.75c0-0.07,0-0.07,0-0.14c-0.07,0-0.07,0-0.14,0
			c0,0.07,0,0.07,0,0.14C205.73,51.75,205.73,51.75,205.8,51.75z M206.09,52.6c0-0.14-0.07-0.21-0.29-0.14c0,0.07,0,0.07,0,0.14
			C205.87,52.6,206.02,52.6,206.09,52.6z M205.87,45.1c-0.07,0.21,0.29,0.21,0.29,0.07C206.02,45.17,206.02,45.03,205.87,45.1z
			 M205.87,56.03 M206.09,51.67c0,0.14-0.29,0.36,0,0.43C206.09,51.96,206.44,51.67,206.09,51.67z M206.02,43.38 M206.02,50.96
			 M206.02,55.1 M206.09,50.53 M206.23,52.96c-0.07,0.07-0.14,0.64,0,0.71C206.3,53.53,206.44,53.03,206.23,52.96z M206.3,49.17
			 M206.3,52.25 M206.44,44.24c-0.21-0.07-0.07-0.21,0-0.29C206.59,44.03,206.44,44.1,206.44,44.24z M206.44,43.03 M206.44,54.82
			 M206.52,53.46c-0.07,0.21,0.29,0.21,0.21,0C206.73,53.39,206.52,53.39,206.52,53.46z M206.52,55.18 M206.59,44.31 M206.59,48.67
			 M206.59,52.96 M206.66,54.1 M206.73,47.96c0.14,0.29-0.21,0.43,0,0.57C206.8,48.39,207.09,47.89,206.73,47.96z M206.73,49.1
			 M206.87,53.68 M207.37,46.67c-0.5-0.07-0.29,0.5-0.43,0.71C207.23,47.31,207.23,46.96,207.37,46.67z M206.95,50.75 M207.09,42.17
			c0,0.07,0,0.07-0.07,0.07C207.02,42.17,207.02,42.17,207.09,42.17z M207.02,51.75 M207.45,41.67c0,0.29-0.14,0.43-0.36,0.5
			C207.23,41.95,207.23,41.67,207.45,41.67z M207.09,50.53c0,0.14,0,0.36,0.21,0.29C207.3,50.67,207.23,50.6,207.09,50.53z
			 M207.37,53.68c0.07,0.36-0.29,0.29-0.29,0.57C207.45,54.39,207.52,53.75,207.37,53.68z M207.16,43.03 M207.16,49.82 M207.3,46.46
			c0.21,0.14,0.21-0.29,0.07-0.29c0,0.07,0,0.14-0.07,0.07C207.3,46.31,207.3,46.39,207.3,46.46z M207.59,52.25
			c0,0-0.07,0-0.07-0.07c-0.07,0-0.07,0-0.14,0c0,0.14-0.07,0.36,0.07,0.36C207.45,52.39,207.59,52.39,207.59,52.25z M207.37,49.1
			 M207.73,49.39c-0.14,0-0.21,0.07-0.29,0.14C207.59,49.53,207.66,49.46,207.73,49.39z M207.45,50.39c0,0.14,0.07,0.29,0.14,0.36
			C207.8,50.6,207.59,50.46,207.45,50.39z M207.45,50.89 M207.52,40.24 M207.59,45.74 M207.59,48.82c0,0.14,0,0.36,0.21,0.29
			C207.8,48.96,207.73,48.89,207.59,48.82z M207.59,54.6 M207.87,50.39c0-0.07,0.07-0.07,0.07-0.14c-0.07,0-0.07-0.14-0.21-0.14
			c0,0.14,0,0.21,0,0.29C207.73,50.39,207.8,50.39,207.87,50.39z M207.73,52.82 M207.87,50.53 M207.95,47.96 M208.3,40.24
			c-0.07,0-0.14,0-0.29,0c0.14,0.29-0.21,0.43,0,0.57C208.09,40.6,208.3,40.52,208.3,40.24z M208.8,41.38 M209.02,40.45
			 M209.02,49.46 M209.16,47.03 M209.45,45.74 M209.45,46.67 M209.66,47.74c-0.07,0-0.07,0-0.14,0c0-0.07,0-0.14,0-0.21
			C209.59,47.6,209.73,47.6,209.66,47.74z M210.16,44.88c0-0.07,0.07-0.21-0.07-0.21c0,0.14-0.21,0.07-0.14,0.21
			C210.02,44.88,210.09,44.88,210.16,44.88z M210.02,38.95c0.29-0.07,0.29,0.14,0.14,0.29c0,0,0,0-0.07,0
			C210.09,39.17,210.02,39.1,210.02,38.95z"/>
		<path class="icon0 st3" d="M241.68,41.81c-1.86,0.79-4.36,1.86-6.15,2.79c0.21,0.71,0.71-0.29,1.07-0.21c-1.21,1.29-3.29,2-4.86,2.72
			c-0.07,0.36,0.21,0.43,0.21,0.71c-0.36,0.07-0.21-0.29-0.5-0.36c-0.36,0.71-1.14,0.43-1.64,1c-0.07,0.14,0.14,0.14,0.29,0.21
			c-0.29,0.29-0.64,0.36-1,0.57c0,0.14,0.07,0.29,0.29,0.21c-0.36,0.29-0.93,0.57-1.36,0.29c-0.21,0.29-0.43,0.57-0.57,0.79
			c-2.86,0.93-5.22,2.29-8.86,2.43c-5.86-0.07-6.5-6.36-4.15-10.15c2.43-2.64,4.93-5.43,9.36-5.5c1.79,1.14,1.86,3.65,0.93,5.5
			c-2,1.5-3.43,3.5-5.93,4.36c-1.57,0.14-2.64-0.21-3-1.64c-0.79,0.57-1.21,1.64-1.36,3c0.36,0.43,0.86,0.79,1.5,1.07
			c10.22,0,17.01-5.43,25.66-7.93C241.61,41.67,241.61,41.81,241.68,41.81z M217.74,43.03c0.14,0,0.29-0.07,0.29,0.07
			c-0.36,0.43-1.14,0.43-1.29,0.93c3.29-1,6.08-2.36,7.36-5.65c-0.29,0-0.21-0.21-0.36-0.21c0,0.14-0.07,0.21-0.07,0.29
			C221.02,39.1,219.24,40.88,217.74,43.03z M219.45,50.6c-0.14-0.14-1.14-0.43-1.14-0.14C218.67,50.6,219.24,50.89,219.45,50.6z
			 M225.53,48.67c3.72-0.79,7.36-2.43,9.86-3.86c-4.72,1.43-9.29,4.07-14.65,4.72C222.45,50.03,223.96,49.24,225.53,48.67z
			 M227.31,50.32c-0.14-0.07-0.29-0.14-0.21,0.07C227.24,50.46,227.31,50.39,227.31,50.32z M228.46,49.74c0-0.07,0-0.07,0-0.14
			c-0.07,0-0.14,0-0.21,0c0,0.07,0,0.07,0,0.14C228.31,49.74,228.39,49.74,228.46,49.74z M229.03,49.39
			c-0.14-0.21-0.43-0.07-0.43,0.21C228.82,49.53,228.96,49.53,229.03,49.39z M229.67,48.46c-0.29,0.14-0.71,0.14-0.71,0.5
			C229.24,48.82,229.6,48.82,229.67,48.46z M230.53,48.6c-0.14,0-0.21,0-0.29,0c0-0.07,0-0.07,0-0.14
			C230.39,48.39,230.53,48.46,230.53,48.6z M231.46,47.81c0,0.07,0,0.14,0,0.21c-0.07,0-0.14,0-0.21,0c0-0.07,0-0.14,0-0.21
			C231.32,47.81,231.39,47.81,231.46,47.81z M232.17,47.67c-0.14-0.07-0.14-0.21-0.14-0.36C232.32,47.31,232.32,47.6,232.17,47.67z
			 M237.03,44.38c0.07,0.14-0.07,0.14-0.21,0.14c0-0.07,0.07-0.07,0.07-0.14C236.96,44.38,237.03,44.38,237.03,44.38z M237.18,44.03
			c0,0.07,0,0.14,0,0.21c-0.07,0-0.14,0-0.21,0c0-0.07,0-0.14,0-0.21C237.03,44.03,237.11,44.03,237.18,44.03z M237.25,44.1
			c0.14-0.21,0.43-0.29,0.86-0.36C237.96,44.03,237.61,44.17,237.25,44.1z M238.32,43.6c0.29,0.07,0,0.36-0.21,0.14
			C237.96,43.45,238.39,43.81,238.32,43.6z M241.97,41.45c0.07,0.29-0.21,0.14-0.36,0.21C241.68,41.52,241.75,41.45,241.97,41.45z"
			/>
	</g>
</g>
</svg>
